<?xml version="1.0" standalone="no"?>
<!DOCTYPE svg PUBLIC "-//W3C//DTD SVG 20010904//EN"
 "http://www.w3.org/TR/2001/REC-SVG-20010904/DTD/svg10.dtd">
<svg version="1.0" xmlns="http://www.w3.org/2000/svg"
 width="1185.000000pt" height="1185.000000pt" viewBox="0 0 1185.000000 1185.000000"
 preserveAspectRatio="xMidYMid meet">
<metadata>
Created by potrace 1.11, written by Peter Selinger 2001-2013
</metadata>
<g transform="translate(0.000000,1185.000000) scale(0.100000,-0.100000)"
fill="#000000" stroke="none">
<path d="M6000 7610 c-9 -6 -10 -10 -3 -10 6 0 15 5 18 10 8 12 4 12 -15 0z"/>
<path d="M5900 7594 c0 -6 5 -15 12 -22 9 -9 9 -12 1 -12 -7 0 -15 5 -18 10
-3 6 -15 10 -27 10 -15 0 -19 -5 -14 -17 5 -15 4 -15 -9 1 -9 12 -15 15 -15 7
0 -11 -3 -11 -17 0 -14 12 -16 12 -8 0 6 -11 3 -13 -13 -9 -13 4 -20 2 -16 -3
3 -6 19 -8 36 -5 24 4 31 0 35 -15 8 -28 22 -23 18 6 -1 16 3 25 12 25 8 0 11
-5 7 -12 -5 -7 -3 -8 6 -3 9 6 12 4 8 -7 -4 -8 0 -15 8 -15 7 0 10 5 7 11 -4
6 0 5 9 -2 27 -22 29 2 2 33 -13 15 -24 24 -24 19z"/>
<path d="M5947 7582 c1 -8 3 -16 3 -19 0 -3 8 1 17 8 15 12 16 12 9 -6 -9 -24
-14 -43 -8 -32 2 4 10 3 18 -4 12 -10 13 -9 8 5 -3 9 -1 16 5 16 6 0 11 -8 11
-17 0 -15 2 -16 10 -3 7 11 4 17 -10 24 -11 5 -20 15 -20 21 0 7 -7 16 -16 19
-8 3 -12 2 -9 -4 3 -6 2 -10 -4 -10 -5 0 -11 3 -14 8 -2 4 -2 1 0 -6z"/>
<path d="M6034 7585 c7 -18 -5 -19 -24 -2 -12 10 -12 9 -2 -4 14 -19 57 -22
72 -4 7 8 5 12 -5 12 -8 0 -11 -5 -8 -10 3 -5 0 -7 -8 -5 -8 3 -13 11 -11 17
1 6 -3 11 -9 11 -6 0 -9 -7 -5 -15z"/>
<path d="M6086 7563 c-14 -19 -15 -27 -7 -36 9 -9 11 -8 6 4 -3 9 2 22 11 30
16 13 17 12 10 -6 -5 -15 -4 -17 4 -8 8 7 9 17 4 26 -8 12 -12 11 -28 -10z"/>
<path d="M6160 7580 c-23 -7 -23 -8 -3 -9 12 -1 25 4 28 9 3 6 5 10 3 9 -2 -1
-14 -5 -28 -9z"/>
<path d="M6270 7571 c0 -6 4 -13 10 -16 6 -3 7 1 4 9 -7 18 -14 21 -14 7z"/>
<path d="M5746 7542 c-7 -20 -9 -20 -22 -7 -22 21 -31 19 -11 -3 18 -20 53
-26 62 -11 4 5 14 5 26 -2 21 -11 19 -21 -6 -25 -8 -1 -11 4 -8 13 5 13 3 13
-15 2 -11 -7 -19 -16 -17 -19 2 -4 -2 -7 -10 -7 -8 0 -12 4 -9 9 3 4 -5 8 -18
8 -18 0 -20 -2 -8 -10 9 -6 10 -10 3 -10 -6 0 -19 10 -29 23 -14 19 -16 19 -9
2 9 -26 13 -42 8 -32 -3 4 -9 5 -13 2 -5 -3 -12 0 -16 6 -5 8 -3 9 6 4 9 -5
11 -4 6 4 -4 6 -12 9 -17 5 -5 -3 -6 -10 -3 -16 5 -7 1 -9 -9 -5 -9 3 -20 0
-24 -7 -13 -20 -43 -28 -43 -10 0 9 5 12 13 8 6 -4 8 -3 4 1 -15 17 -36 14
-29 -3 4 -13 2 -15 -9 -7 -8 6 -6 2 5 -8 10 -10 26 -15 35 -12 11 4 9 0 -5
-16 -19 -22 -19 -22 4 -15 13 5 22 3 22 -3 0 -6 -3 -10 -7 -9 -15 3 -43 -14
-37 -23 3 -5 0 -9 -5 -9 -6 0 -11 5 -11 10 0 22 -2 25 -23 37 -28 14 -42 6
-25 -15 11 -13 10 -15 -5 -9 -10 4 -32 0 -48 -8 -25 -14 -30 -14 -35 -1 -3 7
-13 12 -22 10 -9 -3 -44 -1 -77 3 -54 8 -146 3 -202 -10 -19 -5 -101 -53 -113
-68 -3 -3 -13 -8 -23 -12 -10 -4 -15 -11 -12 -17 3 -5 1 -10 -5 -10 -6 0 -30
-20 -54 -45 -25 -25 -42 -45 -40 -45 7 0 -29 -54 -41 -62 -5 -4 -10 -11 -10
-15 -2 -20 -17 -53 -25 -53 -5 0 -7 -6 -4 -14 3 -7 -2 -16 -12 -20 -13 -5 -14
-9 -3 -22 10 -12 10 -15 -2 -12 -9 2 -14 -6 -13 -24 0 -16 -3 -28 -8 -28 -4 0
-5 -6 -2 -14 3 -8 0 -17 -6 -21 -8 -5 -8 -11 1 -21 9 -11 8 -18 -2 -31 -10
-11 -10 -14 -1 -9 13 8 15 -1 12 -47 -1 -15 4 -34 10 -42 14 -16 4 -39 -12
-29 -7 4 -8 2 -4 -5 4 -6 11 -9 16 -6 5 3 8 -10 6 -30 -1 -20 4 -45 11 -55 8
-11 11 -24 8 -30 -4 -6 1 -7 11 -3 11 4 15 2 11 -4 -8 -13 17 -36 28 -25 4 4
4 -3 0 -16 -5 -16 -3 -22 7 -20 7 2 12 -3 11 -9 -2 -7 3 -12 10 -10 6 1 11 -4
9 -11 -1 -8 2 -11 8 -7 6 4 9 9 6 13 -3 3 2 11 12 19 15 13 15 13 -4 4 -25
-12 -44 4 -47 38 -1 21 -17 30 -17 10 0 -5 -5 -7 -11 -3 -8 4 -4 11 10 18 12
7 18 15 14 20 -4 4 -1 4 8 1 25 -9 43 -45 28 -59 -9 -8 -10 -6 -5 9 6 15 4 17
-5 8 -15 -15 -3 -32 20 -26 19 5 74 -40 63 -51 -5 -5 6 -8 24 -5 4 0 10 -3 13
-9 3 -5 41 -26 85 -47 71 -34 89 -39 176 -43 57 -3 118 0 146 7 27 7 53 11 58
11 5 -1 12 3 15 9 15 23 86 18 86 -6 0 -4 9 -19 19 -33 12 -16 16 -18 12 -7
-4 14 -2 18 12 15 10 -2 16 -11 14 -22 -3 -15 1 -18 17 -13 19 5 26 -6 22 -35
-1 -8 20 -5 38 6 10 7 12 6 6 -4 -6 -10 -3 -12 13 -8 16 4 19 2 15 -10 -4 -10
-2 -13 6 -8 6 4 11 4 10 -1 -3 -20 2 -27 11 -13 6 9 13 11 18 5 12 -17 47 -41
38 -27 -4 6 -2 12 3 12 6 0 11 -4 11 -10 0 -5 5 -10 11 -10 5 0 7 6 3 13 -4 6
4 1 19 -12 26 -23 47 -22 47 5 0 8 -10 14 -22 14 -13 0 -29 4 -36 8 -8 5 1 8
23 8 19 -1 35 -5 35 -9 0 -5 4 -6 9 -3 4 3 6 -6 3 -20 -3 -18 0 -25 9 -24 8 2
23 2 34 1 17 -1 18 -3 5 -12 -12 -9 -12 -10 -1 -7 21 6 26 28 6 28 -9 0 -14 4
-11 9 4 5 -4 7 -15 4 -16 -5 -20 -2 -17 8 3 8 12 13 19 11 11 -3 12 -1 2 9
-17 17 -17 32 -1 22 19 -11 68 -13 68 -2 0 6 -4 7 -10 4 -5 -3 -10 -2 -10 2 0
7 -33 9 -74 4 -5 -1 -2 -9 5 -18 12 -16 12 -17 -2 -5 -9 7 -24 9 -33 6 -11 -4
-25 1 -37 15 -11 11 -15 21 -9 21 6 0 8 5 4 12 -5 7 -3 8 7 2 8 -4 19 -9 25
-10 6 -1 22 -5 34 -9 12 -4 20 -3 17 1 -3 5 16 8 41 7 25 -1 52 2 58 8 7 5 16
9 20 8 16 -3 74 13 74 21 0 4 10 7 22 6 12 0 33 9 47 22 13 12 28 22 34 22 6
0 24 10 41 23 17 13 38 27 46 32 13 8 13 7 0 -11 -13 -17 -13 -18 1 -7 8 7 26
10 40 7 22 -4 23 -4 3 5 -24 10 -41 31 -26 31 5 0 21 -9 34 -20 14 -10 29 -16
32 -12 4 4 6 0 4 -8 -2 -9 3 -14 13 -12 9 1 21 -9 27 -24 7 -14 8 -23 3 -19
-5 3 -12 1 -16 -5 -3 -5 2 -10 12 -10 15 0 16 -2 3 -10 -8 -5 -12 -12 -8 -15
3 -3 13 2 23 11 16 16 16 16 13 -1 -2 -11 4 -19 15 -20 9 -2 15 1 12 5 -3 5
-1 12 5 15 6 4 9 3 8 -2 -2 -4 -1 -9 2 -10 3 -1 17 -6 32 -12 22 -8 27 -7 31
7 4 13 5 13 6 2 1 -12 11 -14 47 -11 37 2 45 0 40 -10 -4 -8 -1 -6 7 4 9 10
18 14 21 9 7 -12 48 -3 58 12 5 8 8 7 8 -1 0 -7 7 -10 15 -7 8 4 12 11 8 18
-3 6 -3 8 2 4 4 -4 15 -2 23 5 11 8 14 8 9 0 -4 -6 -2 -15 5 -19 7 -4 10 -4 6
1 -11 12 11 45 26 39 7 -3 20 1 27 8 8 7 27 20 43 28 15 8 58 45 95 81 80 82
92 95 84 103 -4 3 -1 6 5 6 6 0 16 16 23 34 7 20 17 32 23 29 6 -3 8 -3 4 1
-3 4 0 22 7 39 7 18 11 42 9 55 -2 13 0 21 5 18 9 -6 6 42 -3 51 -3 3 -1 14 4
24 6 10 7 20 2 23 -4 2 -9 17 -10 33 -5 54 -21 113 -32 113 -5 0 -7 8 -5 18 3
21 -13 54 -24 48 -4 -3 -7 8 -6 24 1 17 -2 30 -6 30 -12 0 -59 53 -54 61 3 4
-3 13 -13 20 -16 13 -16 13 -2 -6 14 -19 14 -19 -2 -6 -10 7 -18 19 -18 27 0
7 -8 15 -17 18 -10 3 -30 17 -46 31 -32 30 -104 58 -112 44 -4 -6 -13 -5 -24
1 -10 5 -22 6 -26 2 -5 -4 -5 -1 -1 6 4 7 16 10 27 7 10 -4 19 -4 19 -1 0 3
-18 10 -40 16 -22 6 -38 14 -36 19 3 4 -4 7 -14 6 -33 -2 -33 -13 -1 -20 59
-13 30 -20 -74 -19 -62 1 -102 -3 -99 -8 3 -5 0 -8 -7 -7 -22 5 -93 -12 -108
-24 -15 -13 -36 -19 -73 -21 -14 0 -24 -4 -22 -8 3 -4 -4 -11 -13 -17 -25 -13
-58 10 -40 29 9 10 9 11 0 6 -8 -4 -13 -1 -13 8 0 11 7 15 23 12 12 -3 24 -5
27 -5 3 -1 -2 -6 -10 -11 -9 -6 -10 -10 -3 -10 18 0 27 21 13 30 -10 6 -9 9 1
13 11 5 10 6 -1 4 -8 -1 -25 7 -38 18 -12 11 -27 21 -32 21 -6 1 -17 2 -25 3
-8 0 -15 6 -15 12 0 5 5 7 10 4 6 -3 10 -1 10 5 0 6 5 8 12 4 7 -4 8 -3 4 4
-5 9 -13 9 -28 1 -11 -6 -31 -8 -44 -5 -26 7 -33 23 -9 23 8 0 12 -4 9 -9 -3
-4 0 -8 5 -8 6 0 11 4 11 9 0 15 -23 26 -45 23 -18 -3 -17 -1 5 19 l25 21 -25
-15 c-16 -10 -24 -23 -23 -39 1 -21 0 -21 -10 5 -11 28 -22 34 -32 17 -4 -7
-12 -7 -24 0 -10 5 -21 6 -25 2 -4 -3 -4 2 0 12 4 10 9 13 13 7 9 -14 42 -7
52 11 12 21 -19 18 -31 -2 -7 -12 -10 -11 -16 3 -5 14 -9 15 -21 6 -12 -11
-13 -8 -8 17 5 25 4 26 -4 7 -9 -19 -16 -21 -56 -18 -25 3 -50 7 -55 10 -6 4
-7 -2 -4 -12 6 -15 4 -15 -9 2 -9 11 -17 16 -17 11 0 -5 -6 -3 -13 3 -10 8
-14 7 -14 -4 0 -8 4 -12 8 -9 4 2 10 0 14 -5 10 -18 -39 -2 -54 16 -12 16 -12
16 -7 -7 6 -24 6 -24 -5 -3 -8 15 -19 21 -33 19 -12 -2 -26 4 -32 12 -10 14
-12 13 -18 -6z m19 -12 c3 -5 1 -10 -4 -10 -6 0 -11 5 -11 10 0 6 2 10 4 10 3
0 8 -4 11 -10z m260 -40 c3 -5 1 -10 -4 -10 -6 0 -11 5 -11 10 0 6 2 10 4 10
3 0 8 -4 11 -10z m-370 -40 c-3 -5 -11 -10 -16 -10 -6 0 -7 5 -4 10 3 6 11 10
16 10 6 0 7 -4 4 -10z m-25 -38 c0 -15 -2 -15 -10 -2 -13 20 -13 33 0 25 6 -3
10 -14 10 -23z m38 -7 c-3 -3 -9 2 -12 12 -6 14 -5 15 5 6 7 -7 10 -15 7 -18z
m-143 -13 c-3 -3 -11 0 -18 7 -9 10 -8 11 6 5 10 -3 15 -9 12 -12z m425 -25
c0 -6 -3 -7 -7 -4 -3 4 -13 1 -21 -6 -13 -10 -14 -9 -7 2 6 11 5 12 -6 5 -16
-10 -21 -11 -69 -19 -19 -3 -46 -8 -60 -12 -14 -3 -28 -6 -32 -5 -5 1 -8 -3
-8 -9 0 -5 -5 -7 -12 -3 -6 4 -17 -1 -25 -12 -8 -10 -16 -18 -18 -16 -12 6
-26 1 -21 -7 4 -5 -4 -7 -16 -3 -16 4 -19 2 -13 -8 5 -8 4 -11 -3 -6 -12 7 -5
35 9 37 5 1 13 2 19 3 5 0 18 9 29 18 11 9 22 14 25 11 3 -4 6 -1 6 5 0 7 8
12 18 12 10 0 22 3 26 7 8 8 20 11 91 21 57 9 95 4 95 -11z m257 -9 c-3 -7 -5
-2 -5 12 0 14 2 19 5 13 2 -7 2 -19 0 -25z m-717 11 c0 -8 5 -7 16 2 13 10 17
10 24 -1 10 -16 4 -30 -13 -30 -7 0 -6 4 3 10 13 8 12 10 -2 10 -10 0 -18 -6
-19 -12 0 -10 -2 -10 -6 0 -2 6 -9 10 -14 6 -5 -3 -9 2 -9 10 0 9 5 16 10 16
6 0 10 -5 10 -11z m497 5 c-3 -3 -12 -4 -19 -1 -8 3 -5 6 6 6 11 1 17 -2 13
-5z m280 -3 c11 10 18 8 36 -11 12 -12 16 -19 8 -15 -9 5 -20 0 -33 -16 -14
-18 -17 -19 -11 -5 4 12 2 17 -3 13 -6 -3 -16 -2 -24 4 -10 5 -11 9 -3 9 7 0
11 6 9 13 -1 6 -1 8 2 4 2 -4 11 -2 19 4z m-710 -43 c-3 -8 -6 -5 -6 6 -1 11
2 17 5 13 3 -3 4 -12 1 -19z m-189 3 c7 0 10 -6 7 -11 -4 -7 -13 -7 -26 0 -11
6 -23 9 -27 6 -4 -3 -14 -1 -22 4 -12 7 8 8 68 1z m1517 -1 c3 -5 1 -10 -4
-10 -6 0 -11 5 -11 10 0 6 2 10 4 10 3 0 8 -4 11 -10z m-1442 -31 c16 -15 15
-15 -18 -5 -38 12 -46 22 -17 22 10 0 26 -8 35 -17z m1483 -1 c19 -23 19 -23
-2 -5 -11 9 -24 14 -29 10 -4 -5 -5 -2 -1 5 9 16 10 16 32 -10z m-828 -9 c6
-1 12 -6 12 -11 0 -5 5 -6 10 -3 6 3 10 1 10 -6 0 -7 3 -9 7 -6 3 4 17 0 31
-9 13 -9 22 -12 19 -7 -4 5 0 10 7 10 8 0 12 -6 9 -13 -2 -6 1 -15 8 -20 8 -5
10 -3 4 5 -6 10 -3 11 14 2 11 -7 21 -14 21 -17 0 -3 -4 -2 -10 1 -5 3 -10 3
-10 0 0 -8 26 -35 31 -32 2 1 -5 -6 -16 -16 -11 -10 -14 -16 -7 -12 11 6 12 3
3 -14 -7 -11 -16 -21 -21 -21 -6 0 -9 -3 -9 -7 3 -15 -14 -73 -21 -73 -3 0 -7
-6 -8 -12 0 -7 -4 -24 -7 -38 -8 -29 -9 -181 -1 -225 3 -17 14 -51 25 -75 11
-24 17 -48 15 -52 -3 -4 2 -8 11 -8 9 0 14 -4 11 -8 -3 -5 6 -21 19 -36 l24
-28 -22 -23 c-12 -12 -25 -20 -29 -18 -5 2 -8 1 -8 -4 0 -10 -92 -53 -113 -53
-9 0 -19 -5 -22 -10 -4 -6 -11 -8 -16 -4 -5 3 -15 1 -22 -4 -12 -10 -129 -9
-177 1 -44 9 -107 35 -149 61 -41 27 -49 40 -31 51 6 4 8 11 5 16 -4 5 0 12 8
15 7 2 14 10 15 17 6 49 16 76 25 70 6 -3 7 -1 3 5 -4 7 -4 18 1 25 14 23 16
41 18 179 0 76 5 141 9 145 4 4 4 0 0 -10 -4 -11 -1 -17 7 -17 11 0 11 -2 -1
-10 -12 -7 -10 -9 7 -7 14 1 19 5 13 12 -4 5 -8 12 -9 15 0 3 -3 13 -7 23 -5
13 -10 15 -19 7 -9 -8 -14 -6 -19 5 -3 9 0 15 10 15 8 0 13 4 9 10 -3 5 -13 6
-23 3 -9 -3 -14 -3 -10 2 4 4 3 14 -4 22 -8 11 -7 12 6 7 15 -6 14 -1 -4 31
-12 21 -28 44 -36 52 -18 18 -18 33 0 33 7 0 21 10 30 23 9 12 14 16 10 9 -5
-11 -2 -11 15 0 12 7 21 16 21 19 0 3 11 5 25 4 14 -2 23 1 20 5 -8 13 57 18
170 14 55 -2 106 -4 113 -5z m536 -9 c-7 13 -5 13 8 2 13 -10 18 -10 24 -1 5
9 10 9 18 -2 6 -8 16 -15 22 -16 48 -9 64 -14 97 -31 43 -23 125 -88 145 -114
7 -9 19 -24 28 -33 8 -8 13 -15 11 -15 -3 0 5 -20 18 -44 14 -27 20 -48 15
-57 -5 -7 -5 -20 0 -28 11 -21 11 -103 0 -116 -5 -6 -7 -20 -6 -30 2 -11 -3
-30 -11 -43 -7 -12 -11 -27 -8 -32 3 -6 2 -10 -3 -10 -6 0 -15 -14 -21 -30 -5
-17 -17 -33 -25 -36 -9 -3 -14 -9 -12 -13 2 -3 -14 -23 -35 -44 -22 -21 -39
-35 -39 -32 0 3 -9 -3 -21 -13 -22 -21 -126 -55 -140 -46 -5 3 -9 1 -9 -3 0
-5 -25 -8 -55 -8 -30 0 -55 2 -55 6 0 4 -17 9 -37 13 -29 4 -120 44 -141 61
-8 6 22 64 31 58 5 -3 7 -1 3 5 -3 6 -2 13 4 17 6 4 8 11 5 16 -4 5 -1 9 5 9
6 0 8 5 5 10 -3 6 0 10 7 10 9 0 9 3 -2 10 -8 5 -10 10 -5 10 6 0 16 10 24 21
12 20 11 21 -4 15 -15 -5 -16 -4 -5 9 7 8 16 13 20 10 5 -3 12 -1 15 5 4 6 3
10 -2 9 -20 -4 -24 2 -12 18 8 10 9 14 2 10 -8 -5 -11 -1 -8 14 2 12 7 24 9
27 3 2 1 14 -5 25 -8 13 -8 17 -1 13 7 -4 9 6 5 29 -4 26 -2 36 10 41 14 5 14
9 2 27 -8 12 -14 25 -14 30 0 19 -26 75 -33 71 -4 -3 -8 3 -8 13 -1 19 -29 75
-30 58 0 -5 -6 1 -13 15 -13 25 -2 64 15 54 4 -3 8 0 8 6 0 7 7 10 15 6 8 -3
14 -1 12 3 -1 5 1 8 4 8 3 -1 13 4 22 12 10 7 17 10 17 6 0 -4 7 -2 15 5 12
10 15 10 16 -1 0 -11 2 -11 6 -1 4 10 8 10 19 1 11 -9 15 -8 20 5 5 13 9 14
20 5 11 -9 14 -8 14 7 0 17 1 17 16 -2 8 -10 12 -12 8 -4z m301 -42 c45 -36
115 -112 115 -123 0 -7 9 -24 21 -39 11 -14 17 -30 14 -36 -3 -6 0 -13 8 -16
14 -5 20 -34 7 -34 -7 0 -26 37 -28 53 -1 4 -8 15 -17 23 -8 9 -13 19 -10 24
3 5 -4 11 -15 15 -11 3 -20 13 -20 21 0 8 -10 19 -22 24 -13 5 -19 9 -14 9 5
1 -14 23 -44 51 -38 35 -47 48 -32 45 12 -2 29 -10 37 -17z m-1631 1 c-2 -4 9
-4 26 1 18 5 32 5 36 -1 3 -5 10 -7 15 -4 5 4 9 1 9 -5 0 -6 5 -8 10 -5 6 3
10 2 10 -4 0 -5 -6 -12 -12 -14 -8 -4 -7 -6 4 -6 9 -1 19 5 21 12 4 9 6 9 6
-1 1 -7 -6 -15 -14 -18 -8 -4 -12 -11 -8 -18 3 -6 -4 -2 -16 9 -16 14 -22 15
-19 5 2 -8 -3 -14 -9 -12 -7 1 -13 -2 -13 -8 0 -5 5 -10 11 -10 6 0 9 -7 6
-15 -4 -8 -2 -17 4 -20 13 -9 0 -27 -16 -22 -13 6 -13 -32 1 -54 5 -9 2 -10
-9 -6 -8 3 -18 0 -21 -8 -3 -9 0 -12 9 -9 12 5 12 1 2 -20 -7 -14 -16 -26 -22
-26 -5 0 0 -6 11 -14 20 -14 26 -58 9 -73 -4 -5 -5 -3 -2 3 3 6 0 11 -7 11 -7
0 -13 -6 -13 -13 0 -7 4 -11 9 -8 4 3 8 0 8 -6 0 -6 5 -8 10 -5 6 3 10 2 10
-3 0 -16 -13 -22 -25 -12 -8 7 -12 5 -12 -4 0 -9 9 -13 24 -11 17 2 21 -1 13
-10 -5 -6 -7 -15 -3 -18 3 -4 0 -14 -8 -23 -11 -13 -11 -15 2 -12 8 1 15 -1
16 -7 0 -5 -4 -9 -10 -7 -7 1 -3 -4 7 -13 11 -8 17 -18 13 -21 -4 -4 -2 -13 4
-21 19 -22 -18 -16 -40 6 -19 19 -20 19 -18 1 1 -10 5 -16 9 -14 4 3 8 -2 8
-10 0 -11 8 -14 30 -11 18 2 28 0 24 -6 -3 -5 -1 -16 5 -23 8 -10 7 -17 -4
-26 -10 -9 -15 -9 -15 -1 0 6 -8 11 -17 10 -11 0 -13 -3 -5 -6 6 -2 10 -9 6
-14 -3 -5 0 -8 8 -7 8 2 12 -4 10 -14 -2 -13 4 -18 20 -19 13 0 18 -3 12 -5
-8 -3 -1 -17 17 -37 34 -37 39 -68 9 -62 -11 2 -23 -1 -26 -7 -5 -7 -2 -8 6
-3 9 5 11 4 6 -4 -6 -9 -11 -9 -24 1 -12 10 -14 10 -8 1 4 -7 4 -14 -1 -14
-39 -6 -60 -5 -71 4 -9 7 -11 6 -6 -7 5 -14 2 -15 -17 -8 -13 4 -31 8 -39 7
-8 -1 -20 2 -25 6 -6 4 -23 10 -39 13 -33 6 -98 43 -109 62 -4 8 -13 14 -20
14 -17 0 -79 68 -98 108 -8 18 -18 29 -22 25 -4 -3 -7 5 -7 20 0 14 -5 29 -10
32 -6 4 -8 10 -5 15 3 5 1 11 -4 14 -5 3 -8 20 -7 37 1 16 0 32 -4 34 -10 6 1
112 14 133 4 6 4 17 1 22 -3 6 -1 10 5 10 6 0 9 4 5 9 -3 5 0 13 6 16 5 4 8
14 5 22 -3 8 -2 12 2 10 4 -3 23 17 42 44 19 27 41 49 48 49 6 0 12 4 12 9 0
27 185 101 212 85 6 -4 8 -3 5 3 -4 5 6 10 23 10 16 0 27 -4 24 -8z m-284 -44
c0 -2 -15 -19 -32 -37 -18 -18 -32 -36 -30 -40 1 -5 -4 -8 -11 -8 -19 0 -88
-128 -75 -136 8 -5 6 -11 -3 -18 -18 -15 -22 -36 -6 -36 9 0 9 -2 0 -8 -14 -9
-22 -95 -13 -138 6 -26 5 -31 -7 -27 -8 3 -12 12 -9 20 4 8 1 11 -5 7 -7 -4
-9 0 -5 14 4 11 2 23 -4 27 -8 5 -7 12 2 23 7 9 8 13 2 9 -7 -4 -11 2 -11 18
0 14 4 22 9 19 6 -4 6 2 -1 13 -6 12 -6 24 -1 29 5 5 12 25 15 44 7 42 65 151
76 145 4 -3 10 4 14 15 3 11 14 20 22 20 9 0 13 3 10 7 -4 3 5 14 21 24 27 18
42 23 42 14z m373 -29 c3 -8 -2 -20 -11 -28 -15 -12 -16 -11 -3 5 9 12 10 17
2 17 -7 0 -9 5 -6 10 8 13 12 13 18 -4z m258 -28 c11 -21 11 -22 -4 -9 -10 7
-17 17 -17 22 0 15 9 10 21 -13z m56 15 c-4 -3 -1 -13 6 -22 11 -14 10 -14 -5
-2 -21 15 -23 31 -6 31 6 0 8 -3 5 -7z m647 -46 c4 4 4 0 1 -8 -3 -9 1 -22 9
-29 9 -7 13 -16 10 -21 -3 -5 0 -9 6 -9 6 0 8 -4 5 -10 -3 -5 0 -10 7 -10 9 0
9 -3 -2 -10 -11 -7 -11 -10 -2 -10 7 0 10 -4 7 -10 -3 -5 0 -10 7 -10 8 0 9
-3 3 -8 -9 -6 -13 -46 -5 -54 5 -7 5 -58 -1 -58 -3 0 -6 -18 -7 -40 -2 -52 -5
-63 -17 -73 -6 -5 -4 -7 5 -4 8 2 15 9 15 15 0 5 3 13 7 17 14 15 1 -27 -15
-45 -9 -11 -12 -20 -7 -20 5 0 7 -7 4 -15 -4 -8 -11 -12 -17 -8 -5 3 -7 1 -3
-5 3 -6 1 -22 -6 -36 l-11 -26 -21 22 c-12 12 -21 25 -20 28 0 3 -8 14 -18 24
-10 11 -18 26 -18 33 0 7 -4 13 -9 13 -5 0 -11 15 -15 33 -6 31 -13 60 -16 65
-5 7 -2 60 4 70 4 7 2 12 -6 12 -9 0 -9 3 2 10 8 5 11 10 6 10 -5 0 -3 6 3 14
6 8 11 18 10 22 -3 21 2 35 11 29 6 -3 7 1 4 9 -4 9 1 18 10 22 9 3 16 14 16
24 0 11 5 22 11 25 6 4 8 14 5 22 -3 8 -1 11 4 8 6 -3 10 0 10 7 1 9 5 7 14
-4 7 -10 16 -15 20 -11z m-739 -48 c4 -10 11 -19 16 -19 5 0 8 -3 7 -7 -1 -5
6 -26 16 -48 9 -21 18 -46 20 -55 2 -8 7 -23 11 -33 4 -11 3 -23 -3 -29 -8 -8
-6 -18 5 -34 12 -19 13 -24 2 -24 -11 0 -11 -2 1 -10 8 -5 11 -10 5 -10 -5 0
-11 -11 -12 -25 -1 -14 -3 -33 -4 -42 -1 -10 -7 -25 -15 -33 -7 -8 -13 -18
-13 -23 0 -4 -8 -18 -17 -32 -16 -25 -44 -24 -44 2 0 8 -4 12 -8 9 -5 -3 -15
17 -22 45 -8 28 -18 53 -22 55 -5 3 -5 10 -2 16 4 6 0 14 -7 19 -10 6 -10 9
-2 9 9 0 10 7 4 23 -6 18 -6 75 1 145 1 6 6 12 12 12 6 0 4 5 -4 10 -12 8 -12
10 -1 10 8 0 11 3 8 6 -4 4 0 19 7 33 8 14 17 34 20 43 7 22 33 13 41 -13z
m873 -94 c-3 -3 -9 2 -12 12 -6 14 -5 15 5 6 7 -7 10 -15 7 -18z m-1133 5 c3
-6 -1 -7 -9 -4 -18 7 -21 14 -7 14 6 0 13 -4 16 -10z m1763 -4 c0 -6 3 -23 5
-38 2 -15 0 -25 -5 -22 -5 3 -7 12 -4 19 2 7 -2 21 -9 32 -11 15 -11 20 -1 20
7 0 13 -5 14 -11z m-1632 -147 c-1 -22 2 -43 6 -45 4 -3 4 -12 1 -21 -4 -9 -2
-14 3 -11 5 4 10 -10 10 -29 1 -19 8 -39 15 -44 8 -5 10 -9 5 -9 -5 0 -3 -6 3
-13 6 -8 8 -17 4 -20 -3 -4 -2 -7 4 -7 5 0 15 -12 22 -27 10 -21 9 -28 -1 -34
-21 -14 -28 -10 -28 11 0 11 -4 20 -9 20 -5 0 -13 12 -19 28 -6 15 -13 36 -18
47 -10 28 -16 55 -17 85 -1 14 -6 28 -12 32 -6 5 -4 8 5 8 13 0 13 1 0 10 -13
9 -13 10 0 10 13 0 13 1 0 10 -11 7 -11 10 -2 10 7 0 10 5 7 10 -3 6 -1 10 6
10 8 0 7 5 -2 18 -12 15 -12 16 2 5 10 -8 15 -27 15 -54z m-671 -11 c5 4 5 2
1 -5 -8 -14 -36 -6 -36 9 0 7 5 6 13 -1 8 -6 18 -7 22 -3z m14 -142 c9 -11 9
-16 0 -22 -8 -4 -9 -3 -5 4 4 7 2 12 -3 12 -6 0 -11 5 -11 10 0 14 5 13 19 -4z
m2181 -16 c0 -5 -5 -10 -11 -10 -5 0 -7 5 -4 10 3 6 8 10 11 10 2 0 4 -4 4
-10z m-2175 -36 c-10 -11 -19 -13 -23 -7 -4 5 -14 13 -22 17 -8 3 -3 4 12 1
15 -3 30 0 33 6 4 6 9 8 12 5 3 -3 -2 -13 -12 -22z m2151 -22 c-18 -34 -124
-132 -143 -132 -7 0 -13 -5 -13 -11 0 -5 -4 -8 -9 -4 -5 3 -12 1 -15 -4 -6
-10 -82 -26 -103 -22 -7 1 -13 -3 -13 -9 0 -5 5 -10 10 -10 6 0 10 -5 10 -11
0 -8 -4 -8 -14 0 -10 9 -16 9 -21 1 -5 -7 -11 -8 -19 -1 -16 14 -52 6 -48 -10
2 -8 0 -10 -5 -6 -4 5 -9 13 -9 18 -1 5 -2 14 -3 19 0 6 -7 10 -15 10 -20 0
-29 17 -15 26 7 4 9 3 5 -4 -12 -19 132 -3 204 23 25 9 53 19 63 22 9 3 17 9
17 14 0 5 6 9 13 9 12 0 77 59 110 99 25 31 32 20 13 -17z m-1576 24 c0 -2 -7
-9 -15 -16 -13 -11 -14 -10 -9 4 5 14 24 23 24 12z m-485 -15 c3 -5 0 -13 -6
-17 -7 -4 -9 -3 -5 4 3 5 0 13 -6 15 -9 4 -10 6 -1 6 6 1 14 -3 18 -8z m19
-37 c3 -8 2 -12 -4 -9 -6 3 -10 10 -10 16 0 14 7 11 14 -7z m1444 -69 c-3 -3
-9 2 -12 12 -6 14 -5 15 5 6 7 -7 10 -15 7 -18z m-758 -5 c0 9 3 11 8 5 4 -6
19 -16 35 -24 15 -8 27 -18 27 -23 0 -4 5 -8 11 -8 6 0 17 -6 24 -14 12 -12
12 -16 0 -26 -8 -6 -19 -9 -24 -6 -5 4 -12 2 -16 -4 -3 -5 -11 -10 -18 -10 -6
0 -2 6 8 14 11 8 26 11 34 8 10 -4 12 -1 7 7 -5 7 -17 11 -27 8 -11 -3 -17 -2
-14 3 3 4 -6 15 -20 24 -32 21 -38 20 -23 -3 7 -11 15 -18 18 -16 4 2 7 -2 7
-10 0 -8 -2 -15 -4 -15 -9 0 -34 30 -26 30 4 0 -1 7 -11 15 -14 10 -15 15 -6
15 11 0 11 3 2 12 -7 7 -12 17 -12 23 0 5 5 3 10 -5 9 -13 10 -13 10 0z m880
-95 c0 -12 -19 -12 -23 0 -4 9 -1 12 9 8 7 -3 14 -7 14 -8z m70 -10 c0 -7 -30
-13 -34 -7 -3 4 4 9 15 9 10 1 19 0 19 -2z m-640 -15 c0 -5 -5 -10 -11 -10 -5
0 -7 5 -4 10 3 6 8 10 11 10 2 0 4 -4 4 -10z m38 -1 c-2 -6 -8 -10 -13 -10 -5
0 -11 4 -13 10 -2 6 4 11 13 11 9 0 15 -5 13 -11z m42 7 c0 -2 -7 -6 -15 -10
-8 -3 -15 -1 -15 4 0 6 7 10 15 10 8 0 15 -2 15 -4z m-290 -16 c0 -5 -5 -10
-11 -10 -5 0 -7 5 -4 10 3 6 8 10 11 10 2 0 4 -4 4 -10z m65 -20 c3 -5 13 -6
23 -3 13 5 14 3 5 -7 -9 -10 -16 -9 -34 4 -13 9 -18 16 -12 16 7 0 14 -4 18
-10z m29 -49 c-9 -9 -34 -9 -34 -1 0 5 9 8 20 7 10 -1 17 -3 14 -6z m61 -51
c3 -5 1 -10 -4 -10 -6 0 -11 5 -11 10 0 6 2 10 4 10 3 0 8 -4 11 -10z"/>
<path d="M6270 7354 c0 -8 5 -12 10 -9 6 3 10 10 10 16 0 5 -4 9 -10 9 -5 0
-10 -7 -10 -16z"/>
<path d="M6506 6942 c-4 -7 -2 -36 4 -52 6 -14 5 -37 -2 -52 -6 -13 -5 -16 6
-12 9 4 13 15 10 31 -5 24 -3 25 12 12 16 -13 16 -12 3 9 -8 12 -18 22 -24 22
-5 0 -3 5 5 10 12 8 12 10 1 10 -11 0 -11 3 -1 15 8 9 9 15 2 15 -6 0 -13 -4
-16 -8z"/>
<path d="M5350 7209 c0 -5 5 -7 10 -4 6 3 10 8 10 11 0 2 -4 4 -10 4 -5 0 -10
-5 -10 -11z"/>
<path d="M5316 7168 c3 -5 10 -6 15 -3 13 9 11 12 -6 12 -8 0 -12 -4 -9 -9z"/>
<path d="M5310 7131 c0 -6 4 -13 10 -16 6 -3 7 1 4 9 -7 18 -14 21 -14 7z"/>
<path d="M5293 6948 c-3 -7 -1 -8 5 -4 7 4 12 1 12 -8 0 -9 4 -16 10 -16 5 0
6 7 3 17 -5 12 -3 14 8 8 8 -5 11 -4 6 0 -12 13 -36 15 -44 3z"/>
<path d="M5313 6823 c9 -2 14 -9 11 -15 -4 -7 -2 -8 5 -4 15 10 4 26 -17 25
-15 -1 -15 -2 1 -6z"/>
<path d="M5310 6781 c0 -6 4 -13 10 -16 6 -3 7 1 4 9 -7 18 -14 21 -14 7z"/>
<path d="M5290 6771 c0 -6 4 -13 10 -16 6 -3 7 1 4 9 -7 18 -14 21 -14 7z"/>
<path d="M5330 6742 c0 -5 6 -15 14 -21 12 -10 14 -9 12 5 -3 19 -26 33 -26
16z"/>
<path d="M5349 6667 c-8 -6 -12 -11 -10 -10 2 1 12 -2 23 -8 25 -13 30 -9 14
13 -10 14 -16 15 -27 5z"/>
<path d="M6600 6409 c0 -4 11 -6 24 -3 14 2 28 0 31 -6 8 -13 25 -3 25 13 0 7
-4 6 -10 -3 -6 -9 -10 -10 -10 -3 0 6 -13 11 -30 11 -16 -1 -30 -5 -30 -9z"/>
<path d="M5686 7525 c4 -8 11 -15 16 -15 6 0 5 6 -2 15 -7 8 -14 15 -16 15 -2
0 -1 -7 2 -15z"/>
<path d="M5587 7489 c7 -7 15 -10 18 -7 3 3 -2 9 -12 12 -14 6 -15 5 -6 -5z"/>
<path d="M6130 7489 c0 -5 5 -7 10 -4 6 3 10 8 10 11 0 2 -4 4 -10 4 -5 0 -10
-5 -10 -11z"/>
<path d="M5524 7429 c-4 -7 -3 -9 3 -6 11 7 28 -20 24 -38 -2 -5 1 -7 5 -2 4
4 9 17 11 29 2 12 0 19 -3 15 -4 -4 -13 -2 -20 4 -8 7 -14 6 -20 -2z"/>
<path d="M4853 6575 c0 -8 4 -12 9 -9 5 3 6 10 3 15 -9 13 -12 11 -12 -6z"/>
<path d="M4905 6499 c-4 -5 -4 -13 -1 -16 3 -4 6 0 6 8 0 11 2 11 10 -1 6 -9
10 -10 10 -3 0 17 -17 25 -25 12z"/>
<path d="M6355 6440 c-11 -4 -24 -5 -30 -2 -5 3 -5 -1 1 -7 9 -10 17 -10 32
-2 14 7 23 8 27 1 3 -5 0 -10 -8 -10 -19 0 -30 -27 -15 -36 7 -5 8 -2 3 6 -6
10 -4 12 9 7 10 -4 20 -7 22 -7 3 0 2 -5 -2 -12 -4 -6 -3 -8 4 -4 6 3 13 -2
16 -11 4 -15 4 -14 3 2 -1 11 2 26 7 33 5 8 4 18 -3 25 -6 6 -11 7 -11 2 0 -4
-8 -1 -17 7 -12 10 -25 13 -38 8z"/>
<path d="M5857 6304 c6 -16 10 -16 38 -4 14 6 15 9 5 10 -8 1 -23 3 -32 5 -11
2 -15 -2 -11 -11z"/>
<path d="M6025 6301 c-3 -5 0 -13 6 -17 8 -5 9 -3 4 6 -6 10 -4 12 9 7 10 -4
15 -3 11 3 -8 13 -22 13 -30 1z"/>
<path d="M5968 6263 c7 -3 16 -2 19 1 4 3 -2 6 -13 5 -11 0 -14 -3 -6 -6z"/>
<path d="M6002 6231 c-11 -7 -11 -9 0 -14 9 -3 15 1 15 9 0 8 -1 14 -1 14 -1
0 -7 -4 -14 -9z"/>
<path d="M2290 6139 c-88 -14 -114 -20 -169 -39 -135 -45 -218 -97 -309 -190
-69 -71 -92 -100 -92 -116 0 -8 -4 -14 -8 -14 -11 0 -82 -150 -82 -173 0 -9
-4 -17 -9 -17 -10 0 -18 -40 -35 -171 -1 -14 -7 -32 -11 -39 -6 -9 -4 -11 6
-5 11 7 12 6 2 -6 -10 -12 -10 -18 0 -29 7 -8 8 -10 1 -7 -13 8 -14 -40 -1
-60 5 -8 4 -13 -3 -13 -13 0 -9 -32 4 -42 6 -4 4 -14 -5 -24 -8 -10 -9 -15 -2
-11 8 5 12 -2 11 -20 0 -16 3 -44 7 -63 4 -19 8 -40 9 -47 1 -7 5 -15 8 -19 4
-3 4 -12 1 -20 -3 -8 -1 -14 4 -14 5 0 15 -22 22 -50 7 -27 16 -50 20 -50 4 0
13 -17 20 -37 8 -20 22 -46 32 -57 11 -11 19 -25 19 -32 0 -7 4 -14 9 -16 5
-1 24 -22 44 -45 19 -23 37 -40 40 -37 3 3 8 -3 11 -14 4 -11 14 -22 24 -26 9
-3 37 -20 62 -39 53 -39 156 -86 205 -94 19 -3 35 -9 35 -12 0 -4 12 -8 28 -9
15 -1 50 -6 77 -10 82 -13 310 -3 339 15 6 4 18 8 26 10 40 6 100 27 100 35 0
5 4 7 9 3 10 -5 99 39 156 78 44 30 175 163 168 171 -4 3 -1 6 5 6 7 0 12 7
12 15 0 8 4 15 8 15 6 0 51 77 57 100 1 3 7 17 13 31 6 15 12 35 14 45 2 11 6
21 10 25 4 3 10 21 12 40 3 18 6 35 7 37 4 5 7 23 8 53 1 19 5 28 12 23 8 -5
8 -1 0 13 -6 11 -7 23 -4 27 10 10 10 166 -1 166 -5 0 -4 6 1 13 8 10 10 32 4
40 -2 1 -4 13 -7 27 -2 14 -7 41 -10 60 -10 52 -14 74 -16 88 -1 6 -5 12 -10
12 -4 0 -8 8 -8 17 0 21 -62 153 -72 153 -4 0 -8 7 -8 15 0 7 -8 19 -17 24
-10 6 -15 11 -10 11 19 0 -139 160 -160 160 -6 0 -13 4 -15 8 -4 11 -118 75
-118 67 0 -4 -10 -1 -22 7 -68 44 -334 77 -458 57z m94 -170 c-4 -8 0 -8 15 0
11 7 21 8 21 4 0 -5 19 -9 43 -9 106 -1 235 -62 324 -152 35 -35 63 -70 63
-78 0 -8 4 -14 8 -14 4 0 19 -21 32 -47 28 -56 25 -49 35 -90 4 -18 11 -30 15
-28 5 3 7 -3 5 -12 -1 -10 0 -22 4 -28 3 -5 7 -21 8 -35 1 -14 5 -38 8 -55 7
-37 7 -202 1 -233 -3 -12 -8 -27 -12 -34 -4 -6 -3 -8 3 -5 9 6 -3 -51 -20 -93
-3 -8 -11 -33 -18 -55 -6 -22 -17 -47 -24 -55 -7 -8 -16 -25 -20 -38 -3 -12
-11 -20 -16 -16 -5 3 -9 2 -8 -3 4 -26 -31 -79 -45 -66 -3 3 -6 1 -6 -6 0 -48
-251 -190 -292 -165 -4 3 -8 1 -8 -5 0 -6 -42 -9 -105 -9 -64 1 -105 5 -105
11 0 6 -3 8 -6 5 -14 -15 -181 52 -197 79 -4 7 -12 13 -17 13 -9 0 -80 66 -80
75 0 3 -12 18 -26 33 -14 15 -32 44 -41 65 -8 20 -18 37 -22 37 -7 0 -31 72
-31 95 0 9 -4 14 -8 11 -5 -3 -9 0 -9 7 -1 7 -5 32 -9 57 -9 48 -12 258 -5
325 3 22 12 49 20 59 9 11 10 16 4 12 -7 -4 -13 -2 -13 3 0 6 4 11 9 11 5 0
11 12 14 28 3 15 11 41 18 57 7 17 12 33 11 38 -1 4 2 7 8 7 5 0 10 6 10 13 0
7 8 22 19 33 10 11 22 30 25 42 4 12 12 20 17 17 5 -4 9 -1 9 4 0 11 12 24 73
79 20 18 37 29 37 25 0 -5 4 -3 8 3 18 27 131 66 221 78 24 3 46 8 49 11 9 9
13 5 6 -6z"/>
<path d="M6720 6138 c-30 -4 -65 -9 -77 -10 -13 -1 -23 -5 -23 -8 0 -3 -11 -7
-26 -8 -24 -2 -174 -60 -184 -71 -6 -7 -40 -29 -60 -38 -37 -17 -176 -156
-186 -185 -3 -10 -11 -15 -17 -12 -7 4 -9 4 -5 -1 4 -4 -1 -20 -11 -34 -24
-36 -61 -117 -61 -136 0 -10 -5 -13 -12 -9 -7 4 -10 4 -7 0 4 -4 1 -28 -7 -53
-8 -25 -11 -49 -9 -53 3 -5 0 -12 -6 -15 -5 -4 -8 -14 -5 -22 3 -8 2 -12 -2
-9 -17 10 -19 -349 -1 -371 1 -2 3 -7 4 -13 1 -5 4 -11 5 -12 1 -2 3 -14 4
-28 1 -14 7 -35 14 -46 6 -12 8 -24 5 -28 -3 -3 -1 -6 5 -6 6 0 9 -7 6 -15 -4
-8 -1 -15 5 -15 6 0 10 -3 9 -7 -3 -10 51 -121 72 -148 34 -45 180 -185 193
-185 7 0 22 -8 33 -18 10 -10 35 -24 54 -32 19 -8 38 -18 41 -23 3 -4 12 -9
20 -11 47 -8 87 -18 104 -26 73 -33 402 -31 443 2 8 8 12 7 12 -3 0 -10 3 -10
8 -3 4 6 31 17 60 24 28 8 52 17 52 21 0 4 12 10 28 14 15 3 44 17 64 31 21
13 40 24 43 24 7 0 11 3 102 81 10 8 34 35 53 58 19 24 41 49 48 56 6 8 12 18
12 24 0 6 5 11 12 11 6 0 8 3 5 7 -4 3 1 12 11 20 9 8 11 11 3 8 -8 -5 -7 2 5
20 10 16 19 35 20 43 2 8 6 18 11 21 8 6 15 27 16 49 0 6 4 12 9 12 5 0 6 5 3
10 -3 6 -3 16 2 23 4 6 8 17 9 22 1 6 5 24 9 40 23 111 21 345 -4 433 -5 17
-8 32 -6 32 2 0 -3 16 -11 35 -8 19 -12 35 -9 35 3 0 -2 11 -11 25 -9 14 -12
25 -8 25 5 0 3 4 -4 9 -7 4 -14 14 -16 22 -2 14 -17 40 -62 109 -27 41 -124
144 -124 133 0 -5 -5 0 -11 10 -5 9 -17 17 -24 17 -8 0 -15 4 -15 9 0 9 -17
19 -115 69 -51 25 -129 51 -175 57 -14 2 -25 4 -25 5 0 11 -231 17 -295 8z
m94 -170 c-6 -10 -4 -10 7 -2 12 9 33 11 42 4 1 -1 17 -3 36 -5 51 -5 134 -26
149 -38 6 -5 12 -6 12 -3 0 8 104 -62 136 -90 34 -31 103 -123 121 -162 9 -20
20 -39 23 -42 4 -3 12 -27 19 -55 7 -27 15 -57 18 -65 22 -58 32 -222 19 -310
-19 -126 -60 -253 -90 -272 -6 -4 -7 -8 -3 -8 23 0 -91 -136 -150 -178 -69
-49 -175 -92 -205 -84 -5 1 -8 -2 -8 -7 0 -5 -48 -8 -107 -7 -111 2 -224 26
-251 52 -7 8 -20 14 -28 14 -8 0 -17 7 -20 15 -4 8 -11 15 -18 15 -28 0 -166
157 -166 189 0 6 -4 11 -8 11 -5 0 -15 19 -22 43 -8 23 -18 48 -23 55 -5 6 -6
12 -2 12 4 0 2 6 -4 13 -6 8 -8 17 -4 20 3 4 0 14 -8 23 -7 9 -12 29 -11 45 1
16 -2 38 -7 47 -6 11 -6 24 -1 32 5 9 4 20 -3 29 -9 11 -9 15 1 18 6 3 9 10 5
16 -14 22 -14 49 -1 41 10 -6 10 -5 1 8 -7 8 -11 17 -8 19 2 3 5 21 7 42 1 20
5 37 8 37 3 0 5 10 6 23 1 42 13 90 23 96 6 4 8 19 5 35 -2 15 -1 25 4 22 5
-3 17 15 27 39 9 25 22 45 27 45 6 0 8 3 5 6 -18 18 163 202 185 188 4 -3 8
-1 8 3 0 20 136 64 207 67 18 1 35 5 39 9 12 11 16 8 8 -5z"/>
<path d="M3866 6133 c-4 -4 -37 -8 -74 -9 -113 -2 -281 -20 -292 -31 -9 -8 -8
-1587 1 -1603 6 -11 8 -11 9 -2 0 9 5 10 17 3 11 -6 24 -6 35 0 11 6 19 5 24
-2 4 -8 9 -7 15 2 7 12 9 12 9 0 0 -11 3 -11 15 -1 12 10 15 10 15 0 0 -8 4
-9 13 -4 14 11 37 11 54 1 6 -4 14 -3 17 2 4 5 7 154 7 330 0 311 1 321 20
321 10 0 19 -5 19 -10 0 -7 6 -7 19 -1 10 6 21 7 25 4 10 -11 159 -10 180 0
13 6 16 6 12 -2 -5 -8 0 -8 18 -1 14 5 26 8 26 5 0 -2 14 0 30 5 21 6 30 5 30
-3 0 -9 2 -9 8 0 4 7 22 13 40 15 18 1 32 6 32 10 0 4 3 7 8 6 14 -5 102 25
102 34 0 5 4 7 9 3 5 -3 12 -1 16 5 4 6 11 8 16 5 5 -4 9 -2 9 3 0 5 11 14 25
20 33 15 46 26 111 91 30 29 54 58 54 63 0 6 9 22 20 38 11 15 17 30 14 33 -3
3 0 15 6 28 18 32 24 74 23 166 0 76 -11 127 -46 203 -16 34 -80 119 -91 120
-5 0 -16 8 -25 19 -9 10 -26 21 -38 25 -13 4 -23 12 -23 17 0 6 -4 7 -10 4 -5
-3 -10 -1 -10 4 0 6 -6 11 -14 11 -8 0 -27 5 -43 12 -15 6 -30 12 -33 12 -3 1
-9 4 -15 8 -5 3 -31 9 -57 12 -26 4 -66 10 -90 14 -24 5 -64 8 -91 8 -26 -1
-47 3 -47 7 0 5 -5 5 -12 1 -16 -10 -58 -11 -64 -2 -6 10 -18 10 -28 1z m79
-173 c-4 -7 3 -9 19 -6 27 5 151 -10 176 -21 8 -3 17 -7 20 -8 34 -10 85 -39
111 -64 17 -17 36 -31 41 -31 5 0 7 -4 3 -9 -3 -5 0 -13 5 -16 13 -8 34 -56
31 -69 -1 -4 2 -13 7 -20 5 -6 8 -38 7 -71 -3 -102 -4 -107 -17 -99 -9 5 -9 2
1 -9 7 -9 9 -17 4 -17 -8 0 -37 -49 -34 -57 3 -12 -106 -104 -129 -109 -3 0
-18 -7 -35 -14 -16 -7 -37 -14 -45 -14 -8 0 -18 -5 -22 -11 -8 -11 -313 -14
-340 -3 -16 7 -18 32 -17 317 1 280 2 311 17 315 10 3 55 8 101 10 46 3 86 8
89 11 9 9 13 6 7 -5z"/>
<path d="M4690 6112 c-12 -2 -15 -20 -14 -84 1 -74 3 -82 22 -89 12 -5 22 -5
22 -1 0 4 5 0 10 -8 5 -8 10 -10 10 -5 0 14 73 14 82 1 5 -8 8 -8 8 0 0 14
102 14 112 0 5 -8 8 -8 8 0 0 6 18 11 40 11 26 0 37 -4 33 -11 -5 -8 -3 -8 8
0 8 6 23 11 34 11 11 0 26 -5 34 -11 10 -7 13 -7 8 0 -4 7 14 10 54 11 33 0
57 -2 55 -5 -3 -3 2 -11 12 -18 9 -7 13 -14 7 -14 -11 0 -12 -141 -1 -159 4
-6 4 -11 -1 -11 -4 0 -8 -20 -8 -45 0 -25 5 -45 10 -45 7 0 7 -3 0 -8 -5 -4
-10 -20 -10 -37 0 -16 5 -33 10 -37 6 -5 6 -8 -2 -8 -12 0 -10 -30 2 -50 3 -6
2 -10 -3 -10 -6 0 -7 -14 -2 -35 4 -19 5 -35 1 -35 -8 0 -5 -145 3 -159 4 -6
4 -11 -1 -11 -4 0 -8 -20 -8 -45 0 -25 5 -45 10 -45 7 0 7 -3 0 -8 -5 -4 -10
-20 -10 -37 0 -16 5 -33 10 -37 6 -5 6 -8 -2 -8 -12 0 -10 -30 2 -50 3 -6 2
-10 -3 -10 -6 0 -7 -14 -2 -35 4 -19 5 -35 1 -35 -8 0 -5 -145 3 -159 4 -6 4
-11 -1 -11 -4 0 -8 -20 -8 -45 0 -25 5 -45 10 -45 7 0 7 -3 0 -8 -5 -4 -10
-20 -10 -37 0 -16 5 -33 10 -37 6 -5 6 -8 -2 -8 -12 0 -10 -30 2 -50 3 -6 2
-10 -4 -10 -7 0 -7 -8 1 -25 7 -17 15 -22 22 -15 7 5 18 5 26 0 8 -5 21 -5 30
0 11 6 21 5 28 -2 9 -9 12 -9 12 1 0 11 3 11 15 1 12 -10 15 -10 15 1 0 12 2
12 9 0 6 -9 11 -10 15 -2 5 8 13 8 26 1 25 -13 40 7 35 48 -3 22 -1 30 7 26 6
-4 8 -3 5 3 -13 21 -17 84 -5 77 6 -4 8 -3 5 3 -13 21 -17 84 -5 77 6 -4 8 -3
5 3 -11 17 -17 84 -8 78 5 -2 5 12 0 33 -10 44 -10 42 3 66 6 11 6 16 0 12 -5
-3 -9 6 -9 19 0 14 4 25 10 25 8 0 8 3 0 11 -7 7 -8 21 -3 40 5 16 5 27 1 25
-4 -3 -7 13 -7 34 0 23 4 36 9 33 6 -4 7 -1 2 7 -11 18 -13 91 -2 114 6 12 5
16 -1 12 -5 -3 -9 6 -9 19 0 14 4 25 9 25 7 0 7 4 0 13 -13 15 -13 27 0 51 6
11 6 16 0 12 -5 -3 -9 6 -9 19 0 14 4 25 9 25 5 0 6 5 2 11 -10 18 -11 119 -1
112 6 -3 7 -1 4 4 -13 21 -17 84 -5 77 6 -4 8 -3 5 3 -13 21 -17 84 -5 77 6
-4 8 -3 5 3 -10 16 -17 84 -9 79 4 -2 8 4 8 14 0 10 -3 17 -7 14 -4 -2 -6 8
-6 21 0 14 4 25 9 25 5 0 6 5 2 12 -10 16 -11 56 -2 71 4 7 25 13 48 13 27 1
38 -2 33 -10 -5 -8 -3 -8 8 0 18 15 99 14 99 0 0 -8 2 -8 8 0 9 14 105 14 114
0 6 -8 8 -8 8 0 0 14 110 14 110 0 0 -8 3 -7 8 0 9 14 64 13 74 -1 5 -6 8 -5
8 3 0 6 6 12 14 12 8 0 18 5 22 12 4 7 3 8 -5 4 -12 -8 -9 33 5 55 4 7 3 9 -3
6 -11 -7 -11 62 0 80 3 5 1 11 -6 12 -19 3 -1311 6 -1327 3z"/>
<path d="M7999 6095 c0 -11 -2 -36 -5 -55 -2 -19 -6 -69 -9 -110 -3 -41 -7
-95 -9 -120 -10 -104 -19 -248 -19 -292 1 -27 -4 -48 -9 -48 -6 0 -5 -7 2 -15
9 -11 9 -15 1 -15 -7 0 -9 -11 -7 -27 3 -14 2 -31 -1 -37 -11 -17 -9 -56 2
-56 6 0 7 -3 0 -8 -11 -7 -18 -89 -19 -209 -1 -40 -5 -73 -9 -73 -5 0 -5 -4
-2 -10 3 -5 0 -10 -7 -10 -10 0 -10 -2 1 -9 7 -5 11 -13 8 -18 -3 -5 -7 -31
-8 -59 -1 -27 -5 -53 -8 -59 -3 -5 -6 -39 -7 -75 -2 -126 -16 -265 -28 -279
-8 -12 -8 -13 2 -7 8 5 12 1 12 -11 0 -15 2 -16 10 -3 5 8 10 10 10 3 0 -12
24 -12 36 0 4 4 13 2 20 -4 8 -7 14 -7 18 0 4 6 15 7 30 1 12 -4 29 -4 36 0 8
5 19 6 25 2 16 -10 36 -11 29 -1 -3 5 -1 9 4 9 6 0 8 10 4 22 -4 16 -2 19 9
13 11 -6 11 -5 3 4 -7 8 -9 25 -4 47 5 23 4 34 -4 34 -7 0 -7 3 -1 8 6 4 11
25 12 47 1 22 5 87 8 145 4 58 7 116 6 129 -1 14 5 28 11 33 10 6 10 8 1 8 -7
0 -13 7 -13 16 0 8 4 13 8 10 5 -3 9 1 9 9 0 8 -3 15 -7 15 -4 0 -7 7 -7 15 0
8 4 15 9 15 5 0 7 14 4 30 -2 17 -1 55 3 84 4 31 3 62 -2 72 -7 12 -6 15 3 9
10 -6 12 0 8 24 -2 17 -2 31 1 31 3 0 6 39 6 88 0 48 4 90 10 94 6 5 5 8 -2 8
-9 0 -10 7 -5 23 4 12 7 54 7 94 -1 44 3 69 8 66 6 -4 7 -1 2 8 -12 19 -12 81
-1 97 7 9 5 16 -3 22 -10 6 -10 9 -1 15 7 4 9 18 6 34 -5 19 -4 22 3 11 6 -8
13 -34 17 -57 3 -24 11 -43 17 -43 6 0 7 -3 4 -7 -4 -3 -1 -13 6 -21 10 -13 9
-14 -3 -7 -13 8 -13 6 -2 -8 8 -9 11 -20 8 -26 -3 -5 -2 -11 3 -13 5 -1 11
-14 13 -28 1 -14 6 -27 10 -30 4 -3 9 -15 11 -25 2 -11 7 -27 10 -35 3 -8 24
-71 48 -140 23 -69 46 -127 51 -128 4 -2 6 -8 3 -12 -3 -5 1 -24 9 -42 8 -18
21 -51 29 -73 8 -22 26 -69 40 -105 38 -98 40 -104 39 -112 -1 -5 3 -8 8 -8 5
0 9 -3 8 -7 -2 -13 14 -67 25 -81 5 -7 7 -15 4 -18 -3 -4 0 -13 8 -21 8 -8 15
-23 15 -34 0 -10 5 -19 11 -19 5 0 7 -5 4 -10 -4 -6 -2 -17 5 -25 6 -7 13 -24
15 -38 3 -14 12 -38 20 -53 8 -16 18 -44 21 -61 3 -18 10 -33 14 -33 4 0 10
-13 14 -30 l6 -30 94 0 95 0 18 58 c9 31 20 59 24 62 7 6 29 71 28 84 0 5 4
12 10 16 6 3 13 15 15 26 2 10 15 45 29 77 14 31 23 57 20 57 -3 0 2 10 13 22
12 13 13 18 4 13 -11 -6 -10 -3 3 12 9 11 17 27 17 36 0 9 5 17 12 17 6 0 9 3
5 6 -5 6 17 74 43 129 7 17 62 147 72 173 2 4 7 6 11 4 5 -1 6 1 3 6 -6 10 14
82 24 82 3 0 6 8 7 18 1 9 9 35 19 57 10 22 19 45 20 50 2 6 15 42 29 80 33
86 49 138 47 148 -1 4 2 7 7 7 7 0 19 33 25 72 1 3 4 9 8 13 4 4 4 14 1 23 -4
9 -2 13 5 8 6 -4 12 3 14 16 3 13 6 -35 7 -107 2 -71 4 -154 5 -182 0 -29 5
-53 11 -53 5 0 5 -4 -1 -10 -6 -6 -8 -31 -3 -63 3 -28 4 -56 2 -60 -3 -4 0
-13 6 -20 6 -8 6 -18 1 -27 -12 -18 -13 -33 -2 -27 4 3 7 -34 7 -81 0 -48 2
-91 4 -97 8 -17 7 -76 -2 -82 -4 -2 -4 -10 2 -16 5 -7 12 -62 14 -122 3 -61 6
-110 7 -110 0 0 2 -27 3 -60 2 -33 7 -66 11 -74 6 -10 5 -12 -2 -7 -16 10 -15
-7 1 -23 10 -11 9 -12 -2 -6 -10 6 -12 4 -6 -5 4 -7 9 -38 10 -70 1 -31 7 -65
13 -76 8 -14 12 -15 12 -4 0 12 2 13 9 1 6 -9 11 -10 15 -2 5 8 13 8 27 1 14
-8 19 -7 19 2 0 8 3 9 8 3 8 -12 22 -13 39 -2 6 4 15 3 18 -3 5 -7 11 -8 19
-1 7 6 18 6 25 1 26 -15 37 10 31 68 -4 30 -6 70 -5 88 1 19 -1 34 -5 34 -8 0
-6 37 3 46 3 4 2 14 -2 23 -8 13 -14 107 -25 348 0 17 -4 29 -8 26 -5 -2 -8 1
-8 6 0 6 5 11 11 11 8 0 8 4 2 13 -6 6 -10 33 -9 60 1 26 -1 47 -4 47 -3 0 -6
37 -7 83 -1 86 -9 211 -19 312 -3 33 -7 88 -9 122 -1 33 -6 66 -9 72 -4 6 -2
11 4 11 6 0 8 4 5 10 -7 12 -14 72 -17 166 -2 41 -7 75 -13 77 -9 3 -226 2
-282 -2 -17 -1 -24 -9 -29 -36 -3 -19 -10 -35 -14 -35 -4 0 -13 -19 -19 -42
-7 -24 -17 -48 -22 -54 -6 -7 -12 -22 -14 -34 -2 -12 -13 -41 -23 -64 -27 -57
-35 -80 -34 -88 1 -5 -3 -8 -10 -8 -6 0 -8 -3 -5 -7 4 -3 3 -11 -2 -17 -6 -7
-12 -25 -15 -41 -3 -15 -10 -31 -16 -35 -7 -4 -12 -11 -12 -16 0 -9 -12 -44
-25 -74 -3 -8 -7 -17 -8 -20 -1 -3 -9 -23 -19 -45 -10 -22 -19 -44 -20 -50 -4
-14 -15 -41 -44 -105 -14 -30 -26 -62 -27 -70 -4 -22 -64 -180 -80 -213 -8
-15 -10 -25 -5 -22 6 3 7 -1 4 -9 -3 -9 -11 -16 -17 -16 -6 0 -8 -3 -4 -6 3
-3 -3 -30 -13 -60 -11 -30 -16 -54 -12 -54 4 0 2 -4 -4 -8 -6 -4 -15 -25 -21
-47 -8 -37 -10 -38 -20 -19 -7 11 -13 32 -15 47 -2 14 -7 29 -11 33 -4 4 -7
17 -7 29 0 12 -3 25 -7 29 -5 4 -9 12 -9 17 -1 5 -3 11 -4 14 -1 3 -3 8 -4 13
-7 32 -61 180 -70 191 -8 11 -8 13 1 8 6 -4 2 12 -10 35 -11 24 -22 50 -23 58
-3 20 -26 79 -42 107 -7 12 -12 29 -12 37 0 8 -9 31 -20 51 -11 20 -20 42 -20
49 0 7 -6 26 -14 42 -21 42 -39 86 -43 109 -2 10 -8 22 -14 25 -5 4 -9 11 -8
16 1 5 -4 25 -12 44 -7 19 -12 38 -11 43 1 4 -2 7 -8 7 -5 0 -10 9 -10 19 0
11 -5 23 -10 26 -6 4 -8 10 -5 15 3 5 1 11 -5 15 -6 4 -8 11 -5 16 4 5 1 9 -4
9 -6 0 -11 6 -11 14 0 7 -7 30 -15 50 -8 20 -15 38 -16 41 0 2 -8 24 -19 47
l-19 43 -150 0 c-145 0 -151 0 -152 -20z"/>
<path d="M10039 6085 c-4 -212 1 -1575 6 -1588 6 -15 10 -16 16 -5 7 11 9 11
9 -1 0 -11 3 -11 15 -1 11 9 15 9 15 1 0 -7 5 -9 12 -5 18 12 48 12 55 1 3 -5
9 -3 14 4 7 12 9 12 9 0 0 -11 3 -11 15 -1 12 10 15 10 15 0 0 -10 3 -10 14
-1 11 9 15 9 19 -1 4 -11 6 -10 6 0 1 7 5 11 10 8 5 -4 9 327 9 804 0 604 -3
810 -11 811 -7 1 -60 2 -119 3 l-108 1 -1 -30z"/>
<path d="M10340 6092 c0 -5 7 -9 15 -9 8 0 15 4 15 9 0 4 -7 8 -15 8 -8 0 -15
-4 -15 -8z"/>
<path d="M10380 6091 c0 -4 16 -8 35 -8 19 0 35 3 35 7 0 4 -16 7 -35 8 -19 1
-35 -2 -35 -7z"/>
<path d="M10460 6092 c0 -5 7 -9 15 -9 8 0 15 4 15 9 0 4 -7 8 -15 8 -8 0 -15
-4 -15 -8z"/>
<path d="M10503 6081 c2 -10 1 -25 -4 -32 -4 -7 -4 -18 1 -24 10 -12 10 -23
-1 -52 -5 -13 -4 -25 2 -28 5 -4 7 -10 4 -15 -3 -5 -2 -11 3 -14 10 -6 9 95
-2 112 -4 7 -2 12 4 12 6 0 9 4 6 9 -4 5 -1 11 5 13 12 4 1 38 -13 38 -6 0 -8
-9 -5 -19z"/>
<path d="M10679 6040 c-17 -33 -36 -60 -40 -60 -5 0 -6 -7 -3 -15 5 -12 11 -7
25 17 11 18 24 45 30 61 6 15 17 27 25 27 8 0 14 7 14 15 0 31 -20 13 -51 -45z"/>
<path d="M10537 6054 c-3 -4 -1 -16 5 -28 7 -11 11 -24 10 -28 -1 -5 3 -8 8
-8 6 0 10 -8 11 -17 0 -10 3 -13 5 -6 3 6 -3 27 -12 45 -10 18 -17 36 -16 41
2 9 -2 9 -11 1z"/>
<path d="M10710 6051 c0 -6 4 -12 8 -15 5 -3 9 1 9 9 0 8 -4 15 -9 15 -4 0 -8
-4 -8 -9z"/>
<path d="M10409 6033 c-3 -22 4 -69 11 -76 4 -5 4 10 0 32 -5 27 -3 42 4 45 7
3 7 5 -1 5 -7 1 -13 -2 -14 -6z"/>
<path d="M10713 6005 c0 -8 4 -15 9 -15 4 0 8 7 8 15 0 8 -4 15 -8 15 -5 0 -9
-7 -9 -15z"/>
<path d="M10585 5951 c-3 -6 -1 -11 4 -11 6 0 10 -5 9 -11 -2 -6 5 -13 15 -14
18 -3 18 -3 0 18 -10 12 -19 23 -19 25 -1 2 -5 -1 -9 -7z"/>
<path d="M10407 5941 c6 -7 9 -20 6 -27 -3 -8 -3 -14 0 -14 14 0 14 30 -1 41
-14 11 -15 11 -5 0z"/>
<path d="M10706 5932 c-3 -5 1 -9 9 -9 8 0 15 4 15 9 0 4 -4 8 -9 8 -6 0 -12
-4 -15 -8z"/>
<path d="M1590 4382 c0 -17 13 -22 27 -11 10 9 13 8 13 -1 0 -9 4 -9 17 1 14
12 15 12 9 1 -7 -11 -4 -12 13 -3 11 7 21 8 21 3 0 -10 30 -9 47 1 6 4 15 3
18 -3 5 -8 11 -7 21 1 11 9 14 9 14 -1 0 -9 4 -9 17 1 14 12 15 12 9 1 -7 -11
-4 -12 13 -3 11 7 21 8 21 3 0 -11 30 -9 49 3 9 5 12 4 8 -1 -3 -5 3 -10 13
-10 10 0 16 5 13 10 -4 5 -1 6 8 0 21 -13 39 -14 39 -1 0 8 3 7 9 -2 6 -9 11
-10 15 -2 4 6 13 8 19 4 20 -12 37 -12 37 0 0 8 3 8 8 2 9 -13 42 -16 42 -3 0
5 6 6 12 1 18 -10 89 -11 111 -1 9 5 17 5 17 0 0 -11 30 -9 49 3 8 4 12 4 9
-1 -4 -5 5 -9 18 -9 13 0 24 4 24 8 0 5 5 5 12 1 18 -11 57 -11 51 0 -4 5 0 6
8 0 21 -13 39 -14 39 -1 0 8 3 7 9 -2 6 -9 11 -10 15 -2 4 6 13 8 19 4 20 -12
37 -12 37 0 0 8 3 7 9 -2 6 -9 11 -10 15 -2 4 6 13 8 19 4 20 -12 37 -12 37 0
0 8 3 7 9 -2 6 -9 11 -10 15 -2 4 6 13 8 19 4 20 -12 37 -12 37 0 0 8 3 8 8 2
9 -13 42 -15 42 -3 0 6 5 7 13 2 15 -11 38 -11 55 -1 7 5 12 3 12 -4 0 -8 5
-7 17 2 14 12 15 12 9 1 -7 -11 -4 -12 13 -3 11 7 21 8 21 3 0 -11 30 -9 49 3
8 4 12 4 9 -1 -4 -5 5 -9 18 -9 13 0 24 4 24 8 0 5 5 5 12 1 18 -11 57 -11 51
0 -4 5 0 6 8 0 21 -13 39 -14 39 -1 0 8 3 7 9 -2 6 -9 11 -10 15 -2 4 6 13 8
19 4 20 -12 37 -12 37 0 0 7 4 6 9 -2 8 -12 12 -12 25 -2 12 11 16 11 16 1 0
-9 4 -9 17 1 14 12 15 12 9 1 -7 -11 -4 -12 13 -3 11 7 21 8 21 3 0 -10 30 -9
47 1 6 4 15 3 18 -3 5 -8 11 -7 21 1 11 9 14 9 14 -1 0 -9 4 -9 17 1 14 12 15
12 9 1 -7 -11 -4 -12 13 -3 11 7 21 8 21 3 0 -11 30 -9 49 3 9 5 12 4 8 -1 -3
-5 3 -10 13 -10 10 0 16 5 13 10 -4 5 -1 6 8 0 21 -13 39 -14 39 -1 0 8 3 7 9
-2 6 -9 11 -10 15 -2 4 6 13 8 19 4 20 -12 37 -12 37 0 0 8 3 8 8 2 9 -13 42
-15 42 -3 0 6 5 7 13 2 15 -11 38 -11 55 -1 7 5 12 3 12 -4 0 -8 5 -7 17 2 14
12 15 12 9 1 -7 -11 -4 -12 13 -3 11 7 21 8 21 3 0 -11 30 -9 49 3 8 4 12 4 8
-1 -3 -5 6 -9 19 -9 13 0 24 4 24 8 0 5 5 5 12 1 18 -11 57 -11 51 0 -4 5 0 6
8 0 21 -13 39 -14 39 -1 0 8 3 7 9 -2 6 -9 11 -10 15 -2 4 6 13 8 19 4 20 -12
37 -12 37 0 0 7 4 6 9 -2 8 -12 12 -12 25 -2 12 11 16 11 16 1 0 -9 4 -9 17 1
14 12 15 12 9 1 -7 -11 -4 -12 13 -3 11 7 21 8 21 3 0 -10 30 -9 47 1 6 4 15
3 18 -3 5 -8 11 -7 21 1 11 9 14 9 14 -1 0 -9 4 -9 17 1 14 12 15 12 9 1 -7
-11 -4 -12 13 -3 11 7 21 8 21 3 0 -10 30 -9 48 2 7 4 12 2 12 -5 0 -8 3 -9
13 0 8 6 17 8 21 4 12 -12 36 -12 36 0 0 8 3 7 9 -2 6 -9 11 -10 15 -2 4 6 13
8 19 4 20 -12 37 -12 37 0 0 8 3 8 8 2 9 -13 42 -15 42 -3 0 6 5 7 13 2 15
-11 38 -11 55 -1 7 5 12 3 12 -4 0 -8 5 -7 17 2 14 12 15 12 9 1 -7 -11 -4
-12 13 -3 11 7 21 8 21 3 0 -11 30 -9 49 3 8 4 12 4 9 -1 -4 -5 5 -9 18 -9 13
0 24 4 24 8 0 5 5 5 12 1 18 -11 57 -11 51 0 -4 5 0 6 8 0 21 -13 39 -14 39
-1 0 8 3 7 9 -2 6 -9 11 -10 15 -2 4 6 13 8 19 4 20 -12 37 -12 37 0 0 8 3 8
8 2 9 -13 42 -16 42 -3 0 5 6 6 13 1 16 -10 39 -10 55 1 8 5 12 4 12 -4 0 -9
4 -9 17 1 14 12 15 12 9 1 -7 -11 -4 -12 13 -3 11 7 21 8 21 3 0 -11 30 -9 49
3 8 4 12 4 8 -1 -3 -5 6 -9 19 -9 13 0 24 4 24 8 0 5 5 5 12 1 17 -10 68 -11
68 0 0 5 6 5 13 0 15 -11 38 -11 55 -1 7 5 12 3 12 -4 0 -8 5 -7 17 2 14 12
15 12 9 1 -7 -11 -4 -12 13 -3 11 7 21 8 21 3 0 -11 30 -9 49 3 8 4 12 4 9 -1
-4 -5 5 -9 18 -9 13 0 24 4 24 8 0 5 5 5 12 1 17 -10 68 -11 68 0 0 5 6 5 13
0 15 -11 38 -11 55 -1 7 5 12 3 12 -4 0 -8 5 -7 17 2 14 12 15 12 9 1 -7 -11
-4 -12 13 -3 11 7 21 8 21 3 0 -11 30 -9 49 3 8 4 12 4 9 -1 -4 -5 5 -9 18 -9
13 0 24 4 24 8 0 5 5 5 12 1 17 -10 68 -11 68 0 0 5 6 5 13 0 15 -11 38 -11
55 -1 7 5 12 3 12 -4 0 -8 5 -7 17 2 14 12 15 12 9 1 -7 -11 -4 -12 13 -3 11
7 21 8 21 3 0 -11 30 -9 49 3 9 5 12 4 8 -2 -8 -13 36 -11 45 2 5 6 8 5 8 -4
0 -11 3 -11 15 -1 8 7 15 8 15 3 0 -5 9 -9 20 -9 11 0 20 4 20 9 0 6 5 6 13 1
15 -11 38 -11 55 -1 7 5 12 3 12 -4 0 -8 5 -7 17 2 14 12 15 12 9 1 -7 -11 -4
-12 13 -3 11 7 21 8 21 3 0 -11 30 -9 49 3 9 5 12 4 8 -2 -8 -13 36 -11 45 2
5 6 8 5 8 -4 0 -11 3 -11 15 -1 8 7 15 8 15 3 0 -5 9 -9 20 -9 11 0 20 4 20 9
0 6 5 6 13 1 15 -11 38 -11 55 -1 7 5 12 3 12 -4 0 -8 5 -7 17 2 14 12 15 12
9 1 -7 -11 -4 -12 13 -3 11 7 21 8 21 3 0 -11 30 -9 49 3 8 4 12 4 9 -1 -4 -5
5 -9 18 -9 13 0 24 4 24 8 0 5 5 5 12 1 17 -10 68 -11 68 0 0 5 6 5 13 0 15
-11 38 -11 55 -1 7 5 12 3 12 -4 0 -8 5 -7 17 2 14 12 15 12 9 1 -7 -11 -4
-12 13 -3 11 7 21 8 21 3 0 -11 30 -9 49 3 8 4 12 4 9 -1 -4 -5 5 -9 18 -9 13
0 24 4 24 9 0 5 7 3 15 -4 12 -10 15 -10 15 1 0 9 3 10 8 4 9 -13 42 -15 42
-3 0 6 5 7 13 2 15 -11 38 -11 55 -1 7 5 12 3 12 -4 0 -8 5 -7 17 2 14 12 15
12 9 1 -7 -11 -4 -12 13 -3 11 7 21 8 21 3 0 -11 30 -9 49 3 9 5 12 4 8 -2 -8
-13 36 -11 45 2 5 6 8 6 8 -1 0 -12 38 -13 58 -1 7 5 12 3 12 -4 0 -8 5 -7 17
2 14 12 15 12 9 1 -7 -11 -4 -12 13 -3 11 7 21 8 21 3 0 -10 30 -9 47 1 6 4
15 3 18 -3 5 -8 11 -7 21 1 11 9 14 9 14 -1 0 -9 4 -9 17 1 14 12 15 12 9 1
-7 -11 -4 -12 13 -3 11 7 21 8 21 3 0 -10 30 -9 48 2 7 4 12 2 12 -5 0 -8 3
-9 13 0 8 6 17 8 21 4 12 -12 36 -12 36 0 0 8 3 7 9 -2 6 -9 11 -10 15 -2 4 6
13 8 19 4 20 -12 37 -12 37 0 0 8 3 8 8 2 9 -13 42 -15 42 -3 0 6 5 7 13 2 15
-11 38 -11 55 -1 7 5 12 3 12 -4 0 -8 5 -7 17 2 14 12 15 12 9 1 -7 -11 -4
-12 13 -3 11 7 21 8 21 3 0 -11 30 -9 49 3 8 4 12 4 9 -1 -4 -5 5 -9 18 -9 13
0 24 4 24 8 0 5 5 5 12 1 18 -11 57 -11 51 0 -4 5 0 6 8 0 21 -13 39 -14 39
-1 0 8 3 7 9 -2 6 -9 11 -10 15 -2 4 6 13 8 19 4 20 -12 37 -12 37 0 0 7 4 6
9 -2 8 -12 12 -12 25 -2 12 11 16 11 16 1 0 -9 4 -9 17 1 14 12 15 12 9 1 -7
-11 -4 -12 13 -3 11 7 21 8 21 3 0 -10 30 -9 47 1 6 4 15 3 18 -3 5 -8 11 -7
21 1 11 9 14 9 14 -1 0 -9 4 -9 17 1 14 12 15 12 9 1 -7 -11 -4 -12 13 -3 11
7 21 8 21 3 0 -11 30 -9 49 3 9 5 12 4 8 -1 -3 -5 3 -10 13 -10 10 0 16 5 13
10 -4 5 -1 6 8 0 21 -13 39 -14 39 -1 0 8 3 7 9 -2 6 -9 11 -10 15 -2 4 6 13
8 19 4 20 -12 37 -12 37 0 0 8 3 8 8 2 9 -13 42 -15 42 -3 0 6 5 7 13 2 15
-11 38 -11 55 -1 7 5 12 3 12 -4 0 -8 5 -7 17 2 14 12 15 12 9 1 -7 -11 -4
-12 13 -3 11 7 21 8 21 3 0 -11 30 -9 49 3 8 4 12 4 9 -1 -4 -5 5 -9 18 -9 13
0 24 4 24 9 0 5 6 4 13 -3 10 -8 17 -7 27 2 7 6 10 7 7 1 -3 -6 0 -11 8 -11 8
0 11 5 8 10 -4 6 -1 7 8 1 21 -13 39 -14 39 -1 0 8 3 7 9 -2 6 -9 11 -10 15
-2 4 6 13 8 19 4 20 -12 37 -12 37 0 0 7 4 6 9 -2 8 -12 12 -12 25 -2 12 11
16 11 16 1 0 -9 4 -9 17 1 14 12 15 12 9 1 -7 -11 -4 -12 13 -3 11 7 21 8 21
3 0 -10 30 -9 47 1 6 4 15 3 18 -3 5 -8 11 -7 21 1 11 9 14 9 14 -1 0 -9 4 -9
17 1 14 12 15 12 9 1 -7 -11 -4 -12 13 -3 11 7 21 8 21 3 0 -11 30 -9 49 3 9
5 12 4 8 -1 -3 -5 3 -10 13 -10 10 0 16 5 13 10 -4 5 -1 6 8 0 21 -13 39 -14
39 -1 0 8 3 7 9 -2 6 -9 11 -10 15 -2 4 6 13 8 19 4 20 -12 37 -12 37 0 0 8 3
8 8 2 9 -13 42 -15 42 -3 0 6 5 7 13 2 15 -11 38 -11 55 -1 7 5 12 3 12 -4 0
-8 5 -7 17 2 14 12 15 12 9 1 -7 -11 -4 -12 13 -3 11 7 21 8 21 3 0 -11 30 -9
49 3 8 4 12 4 9 -1 -4 -5 5 -9 18 -9 13 0 24 4 24 8 0 5 5 5 12 1 19 -12 57
-11 50 1 -3 5 2 3 13 -5 21 -17 24 -17 36 2 7 11 9 11 9 -1 0 -11 3 -11 15 -1
10 8 15 9 15 2 0 -6 7 -9 15 -6 8 4 15 10 15 15 0 5 -1854 9 -4470 9 -2458 0
-4470 -4 -4470 -8z"/>
<path d="M1300 4252 c0 -7 -4 -11 -9 -8 -5 3 -23 1 -41 -5 -35 -13 -69 -71
-64 -111 1 -13 3 -28 3 -35 1 -6 14 -25 31 -41 24 -25 37 -30 77 -29 26 0 58
7 71 15 20 13 22 13 22 -2 0 -9 4 -16 9 -16 9 0 20 108 12 116 -2 2 -26 4 -53
4 -35 0 -48 -4 -48 -14 0 -10 8 -13 22 -11 13 3 31 2 40 -1 16 -5 17 -8 2 -35
-8 -16 -19 -27 -24 -24 -5 3 -11 1 -15 -5 -3 -5 -21 -9 -40 -8 -19 1 -32 5
-29 10 3 4 -2 8 -11 8 -9 0 -19 9 -22 20 -3 11 -8 20 -12 20 -4 0 -7 16 -7 35
0 19 4 35 8 35 4 0 8 5 8 11 0 6 10 19 23 29 27 23 85 18 109 -11 22 -26 48
-25 41 1 -3 11 -12 20 -19 20 -8 0 -14 5 -14 11 0 5 -4 8 -9 4 -5 -3 -17 2
-25 11 -12 11 -16 12 -16 2 0 -10 -3 -9 -10 2 -7 11 -10 11 -10 2z"/>
<path d="M1840 4251 c0 -7 -4 -9 -10 -6 -10 6 -47 -10 -65 -29 -26 -26 -46
-116 -26 -116 6 0 11 -9 11 -20 0 -30 56 -61 105 -58 77 4 109 32 114 101 4
59 -14 91 -65 115 -26 13 -42 17 -38 10 6 -9 3 -9 -9 1 -12 9 -17 10 -17 2z
m56 -37 c21 -10 34 -24 34 -35 0 -11 4 -19 8 -19 4 0 8 -9 9 -20 1 -11 -2 -18
-6 -15 -5 2 -9 -1 -8 -8 1 -35 -6 -47 -35 -61 -35 -18 -93 -22 -83 -6 3 6 1
10 -5 10 -43 0 -61 92 -26 132 35 41 61 46 112 22z"/>
<path d="M2390 4246 c0 -5 -3 -7 -6 -3 -12 12 -64 -16 -82 -45 -31 -48 -22
-116 20 -150 35 -30 69 -35 131 -17 22 6 37 16 37 25 0 8 4 13 9 10 13 -8 29
65 21 95 -10 35 -50 79 -72 79 -10 0 -18 4 -18 8 0 4 -9 8 -20 8 -11 0 -20 -5
-20 -10z m53 -25 c10 0 16 -5 13 -10 -3 -5 1 -11 9 -14 20 -8 30 -72 16 -105
-12 -29 -51 -52 -88 -52 -30 0 -71 36 -78 70 -12 56 35 121 85 115 14 -1 33
-3 43 -4z"/>
<path d="M3110 4248 c0 -4 -3 -7 -7 -7 -34 5 -91 -34 -94 -64 -5 -45 4 -103
17 -110 8 -5 12 -12 10 -16 -15 -24 99 -39 144 -19 44 19 77 93 57 126 -5 6
-5 12 -2 12 3 0 -2 13 -11 29 -17 28 -45 45 -71 42 -7 -1 -13 2 -13 7 0 5 -7
9 -15 9 -8 0 -15 -4 -15 -9z m73 -46 c13 -12 23 -29 24 -39 1 -10 2 -23 4 -28
5 -22 -14 -65 -32 -70 -10 -4 -19 -11 -19 -16 0 -5 -16 -9 -36 -9 -46 0 -91
44 -88 86 1 16 3 34 3 40 1 15 33 50 51 56 27 10 71 1 93 -20z"/>
<path d="M3756 4251 c-4 -7 -14 -10 -22 -7 -8 3 -14 1 -14 -4 0 -6 -7 -10 -15
-10 -11 0 -15 -11 -15 -40 0 -34 4 -41 25 -46 14 -3 25 -10 25 -14 0 -4 10 -6
23 -6 28 3 73 -19 80 -38 7 -18 -33 -46 -68 -46 -27 0 -65 27 -65 47 0 13 -22
18 -32 8 -11 -12 18 -55 45 -66 40 -17 117 -6 138 20 31 38 4 84 -56 95 -16 3
-41 8 -54 11 -29 5 -40 21 -34 45 6 21 33 30 70 24 28 -5 56 -28 46 -38 -4 -3
3 -6 15 -6 18 0 20 4 13 22 -4 12 -14 25 -22 28 -8 4 -25 12 -38 19 -14 8 -21
8 -16 2 3 -6 2 -11 -4 -11 -5 0 -11 5 -13 12 -3 9 -6 9 -12 -1z"/>
<path d="M4500 4251 c0 -8 -3 -12 -6 -8 -22 22 -105 -56 -98 -93 15 -90 22
-102 70 -121 46 -17 96 -8 127 23 25 26 36 58 20 58 -12 0 -39 -20 -28 -20 5
0 -2 -11 -17 -25 -19 -17 -37 -25 -58 -23 -16 1 -30 6 -30 10 0 4 -7 8 -15 8
-18 0 -36 42 -37 84 -2 43 51 88 95 81 17 -3 37 -11 42 -18 6 -7 18 -18 28
-26 15 -12 17 -11 17 8 0 20 -30 46 -60 53 -8 2 -18 8 -22 13 -5 6 -8 4 -8 -5
0 -13 -1 -13 -10 0 -8 12 -10 12 -10 1z"/>
<path d="M5215 4243 c-58 -20 -84 -57 -81 -116 1 -29 8 -52 17 -58 7 -5 10 -9
4 -9 -5 0 4 -8 20 -19 19 -11 49 -18 83 -18 48 0 55 3 81 34 39 48 41 107 4
151 -16 18 -39 33 -53 35 -14 1 -27 5 -30 8 -3 4 -23 0 -45 -8z m88 -23 c5 0
6 -4 3 -9 -3 -5 1 -11 9 -15 8 -3 15 -12 15 -21 0 -8 5 -15 11 -15 6 0 7 -5 2
-12 -4 -7 -8 -20 -9 -28 -3 -33 -17 -60 -30 -60 -8 0 -14 -5 -14 -11 0 -17
-73 -7 -91 13 -9 10 -18 15 -21 12 -9 -9 -18 57 -11 84 7 30 33 63 45 56 4 -3
8 0 8 6 0 8 13 10 38 6 20 -3 41 -5 45 -6z"/>
<path d="M5645 4239 c-37 -18 -58 -39 -55 -55 1 -4 -4 -11 -12 -15 -10 -7 -10
-9 0 -9 8 0 10 -5 5 -12 -11 -19 -12 -37 -2 -44 5 -3 9 -12 9 -20 0 -21 22
-42 61 -58 53 -22 147 13 155 58 2 6 4 20 6 31 2 11 8 26 12 34 6 9 5 12 -1 8
-6 -4 -13 7 -17 26 -5 27 -14 36 -43 48 -20 8 -41 13 -45 12 -4 -2 -8 2 -8 8
0 8 -6 7 -17 -2 -11 -10 -14 -10 -9 -1 9 15 9 15 -39 -9z m93 -27 c2 -6 8 -9
14 -6 5 3 12 -3 15 -15 3 -12 8 -21 12 -21 11 0 6 -63 -8 -87 -6 -13 -18 -23
-26 -23 -8 0 -15 -4 -15 -9 0 -17 -44 -18 -72 -2 -31 17 -54 64 -49 101 5 42
47 78 88 76 20 0 38 -7 41 -14z"/>
<path d="M5900 4235 c-25 -13 -41 -24 -36 -25 6 0 1 -7 -10 -15 -10 -8 -16
-15 -12 -15 4 0 3 -11 -2 -24 -5 -13 -6 -27 -2 -31 4 -4 7 -14 7 -23 0 -63 96
-103 163 -70 29 15 34 15 39 2 4 -11 8 -12 19 -3 8 7 11 16 6 23 -9 13 -10 27
0 41 3 6 1 17 -5 26 -15 20 -103 25 -110 6 -4 -10 6 -13 39 -12 34 1 43 -2 41
-14 -8 -51 -93 -77 -134 -42 -23 19 -49 101 -32 101 5 0 9 9 9 20 0 11 6 20
14 20 8 0 16 6 18 12 6 17 83 14 100 -3 8 -8 17 -23 22 -34 6 -15 9 -17 16 -6
17 29 -16 71 -57 71 -13 0 -23 5 -23 11 0 8 -6 7 -17 -2 -11 -10 -14 -10 -9
-1 9 16 9 16 -44 -13z"/>
<path d="M7616 4244 c-45 -16 -68 -33 -61 -44 3 -4 -1 -10 -8 -13 -8 -3 -14
-23 -15 -47 -1 -22 2 -39 6 -36 5 3 8 -5 7 -17 -1 -14 9 -30 29 -45 26 -20 40
-23 85 -19 37 3 58 10 67 22 8 11 14 16 14 12 0 -5 6 -2 14 5 7 7 11 19 9 26
-3 7 0 19 7 27 7 8 8 15 3 15 -6 0 -9 11 -8 25 5 37 -68 107 -94 90 -5 -3 -11
-1 -13 4 -1 4 -21 2 -42 -5z m91 -40 c19 -18 47 -98 32 -88 -5 3 -9 -3 -9 -14
0 -50 -100 -83 -130 -43 -7 11 -17 18 -21 16 -10 -7 -16 24 -14 66 2 36 32 82
47 73 4 -3 8 0 8 6 0 17 66 5 87 -16z"/>
<path d="M8579 4235 c-27 -17 -35 -29 -33 -47 1 -12 3 -26 3 -31 1 -10 49 -29
86 -34 17 -3 40 -11 53 -19 20 -13 21 -16 7 -37 -20 -32 -82 -35 -113 -7 -12
11 -22 25 -22 30 0 6 -7 10 -15 10 -8 0 -15 -7 -15 -15 0 -8 5 -15 11 -15 5 0
8 -4 5 -9 -10 -16 38 -37 91 -40 46 -2 56 1 77 24 21 23 23 30 14 56 -5 16
-14 27 -18 24 -5 -3 -10 0 -12 6 -2 5 -15 12 -28 13 -87 10 -115 33 -84 67 16
18 85 20 91 2 9 -23 22 -35 37 -31 15 3 14 7 -6 33 -13 17 -32 30 -43 29 -11
0 -27 3 -35 7 -9 4 -30 -3 -51 -16z"/>
<path d="M8950 4249 c0 -6 -6 -9 -14 -6 -16 6 -80 -46 -69 -56 3 -4 1 -7 -5
-7 -7 0 -12 -16 -12 -40 0 -22 4 -40 10 -40 5 0 7 -7 4 -15 -4 -8 -1 -15 6
-15 6 0 9 -4 6 -9 -11 -18 64 -43 112 -38 26 3 48 6 49 6 9 3 51 76 47 83 -3
4 -1 8 5 8 7 0 7 8 1 25 -5 14 -9 29 -8 33 5 13 -45 62 -63 62 -10 0 -21 5
-24 10 -5 8 -12 7 -23 -2 -12 -10 -14 -10 -8 0 4 6 2 12 -3 12 -6 0 -11 -5
-11 -11z m79 -46 c12 -11 23 -30 24 -42 1 -11 6 -21 12 -21 5 0 4 -4 -3 -9 -8
-4 -13 -11 -13 -15 2 -13 -12 -57 -16 -52 -3 3 -12 -1 -20 -9 -40 -40 -118 1
-128 67 -14 85 82 139 144 81z"/>
<path d="M119 4240 c-1 -7 -1 -192 0 -207 1 -10 38 -11 132 -4 32 2 60 38 65
85 8 58 -9 101 -44 115 -28 11 -151 20 -153 11z m113 -23 c32 -6 58 -39 58
-73 0 -45 -19 -84 -42 -84 -10 0 -18 -3 -18 -8 0 -4 -19 -8 -43 -9 l-42 -2 2
82 c1 45 2 87 2 93 1 11 29 11 83 1z"/>
<path d="M359 4240 c0 -3 -2 -49 -3 -103 -1 -69 2 -102 11 -109 15 -12 16 -9
17 47 l1 40 51 3 c38 2 54 -1 66 -15 18 -19 18 -20 18 -56 0 -14 6 -24 15 -24
18 0 16 65 -2 85 -17 17 -16 27 2 42 8 7 15 26 15 43 0 17 -3 28 -6 24 -4 -3
-13 0 -21 8 -8 8 -31 15 -51 16 -20 0 -54 1 -75 2 -20 1 -37 0 -38 -3z m148
-32 c17 -14 16 -33 -2 -51 -16 -17 -114 -22 -116 -6 -1 5 -1 18 -1 29 0 48 0
48 54 43 29 -2 58 -9 65 -15z"/>
<path d="M1530 4234 c0 -6 12 -11 28 -12 61 0 57 6 54 -100 -3 -84 -1 -99 12
-99 18 0 17 -6 18 110 l0 87 29 1 c41 2 46 3 55 12 4 4 -19 7 -52 8 -32 0 -78
2 -102 2 -25 1 -42 -2 -42 -9z"/>
<path d="M2218 4243 c-10 -3 -18 -13 -18 -24 0 -10 -5 -19 -11 -19 -5 0 -7 -4
-4 -10 3 -5 1 -10 -4 -10 -6 0 -11 -9 -11 -20 0 -11 -4 -20 -9 -20 -5 0 -8 -8
-7 -17 0 -11 -5 -17 -13 -15 -11 2 -12 0 -2 -11 9 -12 8 -16 -4 -20 -10 -4
-17 2 -21 18 -3 14 -10 25 -15 25 -5 0 -9 5 -9 11 0 6 -10 33 -21 60 -16 37
-27 49 -43 49 -21 0 -23 -3 -26 -62 -1 -7 1 -22 3 -33 2 -11 0 -28 -4 -37 -5
-10 -5 -19 0 -22 5 -3 7 -14 5 -24 -6 -22 11 -47 25 -37 9 5 9 10 0 21 -6 8
-7 14 -2 14 5 0 8 27 7 60 -1 33 2 60 7 60 5 0 9 -9 9 -21 0 -11 4 -18 8 -15
9 5 38 -83 33 -99 -1 -5 0 -7 4 -3 4 4 14 1 22 -7 19 -19 33 -19 33 0 0 9 8
30 17 48 9 18 18 38 19 45 1 8 10 22 18 31 9 10 13 21 9 26 -5 4 -2 5 5 1 9
-5 9 -12 2 -27 -7 -13 -7 -19 0 -19 5 0 10 -5 10 -11 0 -5 -4 -8 -8 -5 -4 2
-8 -8 -7 -24 0 -15 3 -26 7 -23 5 2 8 0 8 -6 0 -5 -6 -11 -12 -13 -9 -3 -8 -9
4 -21 17 -17 35 -7 23 13 -3 6 0 10 7 10 8 0 9 3 3 8 -13 9 -15 52 -3 52 5 0
6 5 2 12 -4 6 -6 33 -5 59 1 50 -3 58 -31 52z"/>
<path d="M2605 4242 c-49 -7 -68 -14 -59 -20 5 -4 10 -49 9 -101 0 -62 4 -96
11 -98 6 -2 14 3 18 12 4 11 2 14 -7 9 -9 -6 -9 -4 1 8 9 12 10 18 2 23 -8 5
-8 11 -1 19 6 7 8 16 4 20 -4 4 18 6 50 5 58 -2 85 -18 82 -49 -2 -22 15 -51
26 -45 14 10 11 58 -3 49 -10 -5 -10 -4 -1 6 10 11 9 17 -4 32 -15 17 -15 19
1 37 21 23 18 61 -8 80 -17 13 -78 20 -121 13z m82 -21 c16 -1 25 -9 29 -27 9
-35 -18 -52 -79 -50 -42 1 -51 5 -58 24 -6 16 -5 21 2 16 7 -4 9 0 5 14 -6 17
-2 21 21 24 15 2 35 3 43 2 8 -2 25 -3 37 -3z"/>
<path d="M2825 4240 l-40 -5 2 -63 c2 -47 0 -61 -10 -56 -7 5 -6 1 2 -10 13
-15 13 -19 0 -27 -10 -6 -11 -9 -1 -9 7 0 12 -6 11 -12 -3 -27 1 -37 14 -32 8
3 13 21 13 47 l-1 42 40 2 c59 2 95 -14 95 -44 0 -17 -4 -22 -12 -17 -7 4 -5
-2 5 -14 11 -11 25 -18 34 -15 8 3 11 9 6 12 -5 3 -10 22 -12 41 -2 19 -8 38
-13 41 -7 5 -2 19 13 40 12 18 18 29 11 25 -8 -5 -12 1 -12 18 0 19 -7 26 -32
32 -42 9 -64 10 -113 4z m112 -32 c15 -12 16 -27 3 -48 -6 -10 -28 -15 -69
-16 l-61 -1 2 38 c1 35 4 38 32 41 41 5 77 -1 93 -14z"/>
<path d="M3403 4242 c-12 -8 -34 -55 -37 -82 -3 -21 -18 -73 -24 -84 -4 -8
-27 45 -36 84 -1 8 -8 26 -13 40 -6 14 -9 28 -6 33 2 4 -5 7 -17 7 -14 0 -20
-5 -18 -17 2 -10 6 -21 11 -24 7 -5 14 -28 24 -81 3 -15 8 -26 12 -24 3 2 7
-10 8 -26 1 -17 4 -33 6 -35 8 -7 47 -12 45 -5 -3 16 15 82 23 82 5 0 8 3 7 8
-1 4 2 23 6 43 9 40 30 48 33 12 4 -45 6 -53 15 -53 4 0 8 -12 8 -28 0 -28 24
-72 40 -72 12 0 80 214 69 218 -12 5 -34 -19 -36 -38 -1 -8 -7 -39 -15 -67
-14 -57 -32 -70 -36 -26 -1 15 -8 30 -15 35 -6 4 -9 8 -5 8 8 0 -21 88 -31 94
-4 3 -12 2 -18 -2z"/>
<path d="M3606 4231 c-9 -9 -16 -22 -16 -27 0 -5 5 -2 11 6 7 11 9 7 5 -18 -4
-31 -3 -33 13 -18 18 16 26 62 12 70 -4 3 -16 -3 -25 -13z"/>
<path d="M4015 4242 c-47 -5 -54 -22 -7 -18 22 2 44 0 49 -3 11 -7 11 -122 0
-138 -4 -6 -3 -14 3 -18 5 -3 10 -15 10 -26 0 -10 4 -19 9 -19 13 0 20 26 15
55 -3 15 1 34 8 43 10 12 10 14 1 8 -7 -4 -13 -2 -13 3 0 6 6 11 13 11 8 0 9
2 1 8 -9 6 -12 48 -6 73 1 3 17 4 34 3 18 -1 40 2 48 7 11 6 7 9 -15 9 -16 1
-50 2 -75 3 -25 1 -58 1 -75 -1z"/>
<path d="M4242 4242 c-39 -3 -42 -5 -38 -27 3 -14 1 -27 -4 -30 -5 -3 -6 -16
-1 -28 10 -28 8 -98 -3 -116 -6 -10 -5 -12 2 -7 7 4 12 3 12 -3 0 -12 164 -10
176 2 8 8 0 8 -92 9 l-60 1 -1 38 c-1 40 1 42 52 41 16 -1 36 4 44 11 11 9 13
9 8 0 -5 -8 0 -11 13 -10 11 1 19 6 17 12 -2 5 -33 10 -68 10 l-64 0 -2 33
c-2 40 14 48 85 46 29 -1 55 2 58 7 3 5 -1 9 -8 10 -66 3 -89 4 -126 1z"/>
<path d="M6807 4242 c-35 -7 -15 -23 23 -19 31 3 40 1 41 -12 4 -82 4 -111 -3
-111 -4 0 -8 -5 -8 -11 0 -5 5 -7 10 -4 14 9 12 -8 -2 -24 -10 -11 -10 -13 0
-7 6 4 12 3 12 -1 0 -5 -6 -15 -12 -22 -11 -10 -8 -10 11 -3 27 10 41 32 21
32 -9 0 -9 4 1 16 10 13 10 17 0 24 -11 6 -11 9 0 13 12 5 12 6 0 6 -11 1 -11
4 0 18 11 13 11 17 2 20 -10 4 -10 10 -2 25 8 15 8 19 -1 13 -8 -5 -8 -2 1 12
9 15 20 19 45 16 18 -2 35 1 39 7 3 5 0 10 -7 11 -54 3 -157 3 -171 1z"/>
<path d="M7009 4232 c0 -9 -2 -60 -2 -113 -2 -81 0 -96 13 -94 10 1 15 14 16
36 2 66 3 71 19 65 8 -3 15 0 15 6 0 7 4 7 13 -1 10 -8 17 -7 27 2 7 6 10 7 7
2 -3 -6 3 -11 14 -11 10 0 19 4 19 9 0 4 6 2 14 -5 8 -7 12 -21 10 -30 -1 -10
3 -18 9 -18 8 0 8 -3 -2 -9 -14 -9 -7 -51 9 -51 13 0 16 21 15 120 0 76 -3 95
-15 95 -9 0 -15 -11 -15 -32 0 -18 4 -33 10 -33 5 0 3 -5 -5 -10 -8 -5 -45
-10 -81 -10 l-66 0 2 44 c2 31 -1 46 -11 50 -8 3 -14 -1 -15 -12z"/>
<path d="M7358 4242 c-52 -4 -48 -18 5 -18 l42 0 2 -75 c1 -41 2 -86 2 -101 1
-21 5 -26 17 -21 9 3 14 13 11 24 -3 11 -2 19 1 19 4 0 7 14 7 30 0 17 -2 30
-5 30 -3 0 -5 20 -5 45 0 48 2 50 70 45 21 -1 27 1 19 9 -10 11 -101 18 -166
13z"/>
<path d="M7819 4242 c-11 -2 -16 -15 -17 -43 -1 -23 -4 -45 -8 -50 -3 -5 -1
-9 4 -9 8 0 7 -63 -2 -86 -9 -23 20 -33 89 -30 48 3 72 8 80 20 7 8 14 13 17
10 8 -8 25 47 23 76 -3 57 -16 88 -43 99 -27 11 -113 19 -143 13z m109 -21 c7
-1 10 -5 7 -11 -3 -5 1 -10 9 -10 18 0 23 -8 30 -43 2 -15 8 -32 12 -38 4 -8
3 -9 -4 -5 -8 5 -12 0 -12 -13 0 -11 -14 -30 -32 -42 -18 -13 -28 -17 -23 -8
6 11 5 12 -6 2 -7 -7 -28 -13 -47 -13 l-34 0 4 50 c2 29 -1 50 -7 50 -5 0 -3
5 5 10 8 5 10 10 4 10 -6 0 -9 12 -6 29 4 31 17 38 62 34 14 -1 31 -2 38 -2z"/>
<path d="M8395 4240 c3 -4 -2 -11 -11 -14 -9 -4 -14 -9 -11 -12 3 -3 -8 -21
-26 -40 l-31 -35 -15 26 c-9 14 -19 25 -23 25 -5 0 -8 5 -8 11 0 16 -27 39
-45 39 -15 0 -13 -6 8 -34 15 -18 23 -37 19 -41 -4 -5 -2 -5 4 -2 6 3 17 -5
24 -18 7 -14 16 -25 20 -25 4 0 6 -18 5 -39 -2 -41 9 -71 21 -58 4 3 8 26 9
49 3 66 4 70 15 63 6 -3 10 -2 10 4 0 5 6 16 13 23 6 7 22 28 34 45 22 30 22
31 3 36 -11 3 -18 2 -15 -3z"/>
<path d="M9183 4242 l-61 -3 2 -70 c1 -38 -2 -75 -6 -81 -3 -7 -2 -20 3 -30 7
-13 6 -18 -3 -18 -9 0 -9 -3 2 -10 8 -5 18 -6 22 -2 11 11 13 56 4 71 -6 10
-5 12 2 7 7 -4 12 -3 12 3 0 6 21 9 50 7 28 -2 53 1 56 5 3 5 10 7 15 4 5 -4
12 7 15 24 4 17 10 28 15 25 5 -3 1 9 -9 27 -21 39 -39 45 -119 41z m93 -48
c10 -38 -12 -54 -72 -54 l-54 0 0 39 c0 39 1 40 38 43 60 5 82 -2 88 -28z"/>
<path d="M9338 4242 c-45 -5 -32 -22 13 -18 34 3 42 1 49 -18 4 -11 6 -25 3
-29 -8 -13 -11 -57 -4 -57 4 0 6 -22 5 -50 -2 -53 0 -57 20 -38 9 8 11 23 6
45 -5 21 -4 34 4 37 7 3 7 5 -1 5 -7 1 -13 6 -13 12 0 5 6 7 13 3 8 -5 8 -2
-2 9 -10 13 -10 17 -1 17 9 0 9 4 -1 17 -12 15 -12 16 1 8 13 -8 13 -7 1 8 -9
12 -10 17 -2 17 7 0 10 4 7 8 -3 5 12 7 34 5 21 -2 41 1 45 7 3 5 0 10 -7 11
-81 3 -148 3 -170 1z"/>
<path d="M9811 4242 c1 -4 0 -10 -1 -14 -1 -5 -3 -11 -5 -15 -1 -5 -12 -30
-25 -58 -13 -27 -24 -52 -25 -55 -2 -15 -25 -43 -26 -32 -1 6 -2 17 -3 22 0 6
-7 14 -14 19 -8 5 -13 11 -11 15 1 4 -9 32 -21 62 -18 42 -28 54 -45 54 -21 0
-22 -4 -22 -108 1 -94 3 -108 17 -108 14 0 17 9 15 53 -2 28 -6 56 -9 62 -4 5
-2 12 3 16 6 3 8 13 5 23 -2 9 1 6 8 -8 7 -14 16 -28 21 -31 5 -3 8 -9 8 -13
-1 -3 6 -23 15 -44 10 -20 17 -40 16 -44 -2 -10 24 -17 36 -9 6 3 23 38 39 76
29 74 46 89 48 43 1 -15 -2 -25 -5 -23 -4 2 -7 -2 -7 -10 0 -8 4 -12 9 -9 4 3
8 0 8 -5 0 -6 -6 -11 -12 -11 -8 0 -9 -3 -3 -8 13 -9 16 -42 4 -42 -5 0 -9 -4
-9 -8 0 -4 9 -8 19 -8 11 0 18 3 16 6 -2 3 0 12 5 20 5 8 5 21 0 31 -5 9 -7
19 -3 23 8 8 8 84 0 93 -4 3 -2 12 4 19 9 11 7 15 -5 19 -9 3 -23 7 -31 10 -8
2 -14 1 -14 -3z"/>
<path d="M10075 4224 c1 -13 -1 -24 -6 -24 -4 0 -4 -13 1 -30 6 -21 5 -30 -3
-30 -8 0 -8 -3 0 -11 8 -8 9 -17 1 -33 -6 -11 -14 -28 -18 -36 -11 -24 -70
-23 -97 2 -20 19 -23 31 -23 100 0 63 -3 78 -15 78 -13 0 -15 -16 -13 -89 1
-58 5 -89 12 -88 6 1 10 -3 9 -9 -4 -19 53 -37 94 -30 21 3 43 7 50 8 16 2 25
24 29 71 1 20 6 42 9 47 3 6 0 10 -7 10 -10 0 -10 2 1 9 9 6 10 10 2 12 -9 3
-9 12 -2 31 8 22 7 27 -9 31 -14 4 -17 0 -15 -19z"/>
<path d="M10353 4242 c-6 -4 -26 -43 -45 -87 -18 -44 -39 -81 -45 -82 -6 -1
-14 13 -17 32 -4 19 -11 35 -17 35 -6 0 -7 5 -4 10 3 6 1 10 -6 10 -7 0 -9 3
-6 7 4 3 2 12 -4 20 -6 7 -8 13 -4 13 5 0 0 9 -10 20 -10 11 -26 20 -35 20
-16 0 -17 -12 -16 -107 1 -75 5 -108 14 -111 14 -4 14 -2 13 92 l-1 68 20 -25
c11 -14 20 -28 20 -32 0 -3 9 -28 21 -55 13 -30 26 -47 36 -46 8 1 31 39 51
84 20 45 40 82 43 82 6 0 5 -27 -1 -55 -1 -5 -1 -12 0 -15 7 -19 4 -80 -4 -80
-6 0 -5 -5 1 -11 9 -9 16 -8 27 4 10 10 12 18 6 22 -5 3 -10 11 -10 16 0 6 6
7 13 3 9 -6 9 -5 0 8 -7 8 -10 18 -6 22 9 9 11 46 2 41 -9 -6 -5 48 5 63 4 7
2 12 -4 12 -6 0 -9 4 -6 9 7 11 -17 21 -31 13z"/>
<path d="M10560 4240 c-41 -4 -59 -9 -49 -13 9 -5 20 -7 25 -6 5 1 20 1 32 0
23 -1 24 -3 20 -80 -1 -44 0 -77 4 -74 5 2 7 -4 5 -14 -4 -30 16 -30 24 0 4
15 4 27 0 27 -9 0 -8 31 3 48 4 6 4 12 -1 12 -13 0 -7 70 7 83 10 9 11 9 5 -1
-6 -11 -3 -12 11 -4 11 5 27 8 36 7 10 -2 20 1 24 6 3 5 2 9 -3 10 -42 3 -88
3 -143 -1z"/>
<path d="M11137 4242 c-23 -3 -28 -8 -24 -23 3 -10 1 -19 -4 -19 -6 0 -5 -8 1
-20 6 -11 7 -20 3 -20 -10 0 -9 -118 1 -127 11 -12 176 -14 176 -3 0 9 -67 15
-113 10 -26 -2 -52 21 -35 31 9 6 9 9 1 9 -14 0 -11 29 5 39 6 4 38 6 70 5 39
-1 59 2 59 10 0 8 -22 12 -65 12 -69 1 -81 9 -74 52 3 27 5 27 73 26 38 -1 72
3 75 7 3 5 -3 9 -13 10 -10 0 -38 1 -63 2 -25 1 -58 1 -73 -1z"/>
<path d="M11489 4232 c0 -9 0 -50 0 -91 1 -65 -1 -72 -14 -61 -9 7 -13 15 -11
17 3 3 -9 18 -25 34 -16 15 -29 32 -29 36 0 5 -9 15 -20 23 -11 8 -20 20 -20
26 0 12 -22 24 -43 24 -9 0 -12 -31 -10 -106 0 -58 4 -108 7 -111 13 -13 18 9
19 84 1 43 6 77 10 76 5 -1 22 -19 39 -40 16 -21 35 -41 41 -45 7 -4 8 -8 4
-8 -4 0 -2 -7 5 -15 30 -36 53 -55 63 -52 16 6 15 215 -2 221 -7 3 -13 -2 -14
-12z"/>
<path d="M11554 4239 c-16 -4 -23 -7 -16 -8 7 0 10 -6 6 -12 -4 -8 -1 -8 12
-2 11 5 25 8 32 7 6 -1 17 -2 22 -3 6 0 10 -41 10 -99 0 -81 3 -99 15 -99 12
0 15 18 15 99 0 54 3 98 8 99 4 1 21 2 37 4 46 4 49 5 42 11 -9 9 -145 11
-183 3z"/>
<path d="M589 4218 c-2 -91 1 -191 6 -196 14 -14 22 24 20 89 -1 42 2 66 7 63
6 -4 6 0 0 12 -5 11 -8 27 -7 37 2 9 -3 17 -11 17 -8 0 -14 -10 -15 -22z"/>
<path d="M640 4232 c0 -4 7 -18 16 -30 9 -13 13 -30 10 -38 -3 -8 -1 -12 4 -9
5 3 12 -7 16 -22 4 -15 12 -37 18 -48 5 -11 11 -22 11 -25 2 -19 24 -40 36
-35 15 5 59 96 59 121 0 8 3 14 8 14 8 0 33 72 27 79 -12 11 -33 -12 -45 -50
-8 -24 -20 -55 -27 -69 -7 -14 -13 -33 -13 -43 0 -15 -2 -16 -12 -5 -19 20
-38 56 -38 70 0 24 -42 98 -56 98 -8 0 -14 -3 -14 -8z"/>
<path d="M879 4233 c-5 -41 -3 -203 3 -203 20 0 22 11 23 108 2 79 -1 102 -12
102 -7 0 -13 -3 -14 -7z"/>
<path d="M953 4132 c-1 -85 2 -109 13 -109 7 0 16 7 18 14 3 8 1 11 -4 8 -6
-3 -10 -1 -10 4 0 6 5 11 10 11 6 0 10 5 10 11 0 5 -5 7 -11 3 -7 -4 -7 1 1
16 8 15 8 20 1 16 -6 -4 -11 -3 -11 3 0 5 6 12 13 14 8 4 8 8 2 14 -13 11 -18
36 -5 28 14 -9 13 8 -2 24 -11 11 -9 11 9 0 12 -7 20 -16 18 -19 -2 -4 4 -13
13 -22 26 -23 53 -58 45 -58 -4 0 3 -7 15 -16 12 -8 20 -19 17 -24 -3 -4 3
-11 13 -15 41 -18 42 -16 41 73 -1 48 0 92 1 97 5 22 -1 35 -15 35 -12 0 -15
-16 -15 -80 0 -54 -4 -80 -12 -80 -6 0 -8 3 -5 6 4 4 -2 14 -12 23 -10 9 -30
34 -45 55 -14 21 -26 35 -26 30 0 -5 -6 2 -13 16 -7 14 -22 26 -33 28 -19 3
-20 -2 -21 -106z"/>
<path d="M4657 4233 c-7 -13 -2 -202 6 -209 13 -13 20 5 22 56 1 28 5 53 8 57
4 3 7 1 7 -7 0 -10 3 -10 15 0 8 7 15 8 15 3 0 -12 30 -11 49 2 9 5 12 4 8 -2
-3 -5 4 -9 15 -9 19 1 22 -5 23 -46 0 -46 9 -67 21 -55 3 3 7 52 8 109 1 95 0
103 -19 106 -11 2 -17 1 -13 -3 4 -4 3 -17 -3 -28 -8 -14 -8 -18 0 -13 7 5 10
-2 9 -19 -2 -25 -3 -26 -73 -23 l-70 3 1 43 c0 28 -4 42 -12 42 -7 0 -15 -3
-17 -7z"/>
<path d="M4899 4238 c-6 -21 -5 -39 2 -44 5 -3 6 -11 2 -17 -12 -19 -13 -58
-1 -51 7 4 8 2 4 -5 -14 -23 -17 -61 -4 -61 9 0 8 -3 -2 -10 -11 -7 -11 -10
-2 -10 7 0 10 -5 6 -11 -4 -7 -1 -10 7 -7 10 3 14 26 14 86 0 45 3 82 7 82 9
0 38 -30 38 -39 0 -4 16 -25 35 -46 19 -22 32 -41 30 -43 -2 -3 7 -14 22 -25
24 -19 26 -19 38 -3 9 11 10 28 5 51 -4 19 -4 35 0 35 10 0 7 33 -4 41 -4 4
-4 14 2 24 14 26 3 55 -20 55 -17 0 -18 -3 -8 -15 7 -8 9 -15 4 -15 -12 0 -11
-83 1 -92 6 -5 5 -8 -4 -8 -10 0 -11 -3 -2 -14 7 -8 8 -17 3 -20 -6 -3 -15 1
-22 9 -7 8 -9 15 -6 15 4 0 -3 10 -14 23 -12 12 -38 43 -58 70 -20 26 -44 47
-54 47 -10 0 -18 -1 -19 -2z"/>
<path d="M5405 4133 l0 -107 77 -3 c43 -1 80 2 83 8 6 9 -29 14 -69 9 -10 -1
-28 1 -41 4 -21 5 -22 11 -20 73 1 38 -2 76 -8 87 -6 13 -6 16 2 12 6 -4 11 0
11 8 0 9 -8 16 -18 16 -15 0 -17 -11 -17 -107z"/>
<path d="M6126 4178 c26 -35 52 -69 58 -77 8 -11 8 -13 0 -8 -8 5 -11 -4 -9
-30 1 -20 7 -39 13 -41 7 -2 12 0 13 5 0 4 2 27 4 50 3 31 15 56 49 100 34 42
42 59 31 61 -8 2 -22 -4 -31 -12 -8 -9 -12 -16 -8 -16 4 0 -2 -8 -13 -17 -11
-10 -23 -27 -27 -38 -7 -18 -9 -18 -34 12 -15 17 -34 40 -42 52 -8 12 -23 21
-33 21 -15 0 -9 -12 29 -62z"/>
<path d="M6404 4218 c8 -43 49 -173 59 -185 5 -7 13 -13 17 -13 9 0 48 93 56
138 4 19 12 32 22 32 8 0 13 -3 9 -6 -3 -3 1 -24 9 -46 7 -22 11 -45 7 -51 -3
-6 -1 -7 5 -3 7 4 13 2 13 -3 1 -6 3 -15 4 -21 1 -5 3 -17 4 -25 1 -17 10 -19
29 -7 11 8 22 38 24 70 1 6 4 12 8 12 4 0 7 6 8 13 5 39 15 77 21 77 4 0 7 9
8 21 3 30 -29 20 -34 -11 -2 -13 -7 -27 -11 -30 -4 -3 -7 -9 -8 -15 -1 -31
-17 -85 -25 -85 -8 0 -13 15 -10 33 0 4 -3 7 -8 7 -5 0 -8 8 -7 18 2 9 -1 20
-6 23 -5 3 -10 19 -11 36 -1 17 -5 29 -9 26 -5 -2 -8 1 -8 6 0 6 -9 11 -19 11
-14 0 -22 -10 -27 -32 -4 -18 -7 -36 -6 -40 1 -5 -3 -8 -9 -8 -6 0 -9 -6 -6
-14 3 -8 1 -17 -6 -20 -9 -5 -9 -7 0 -12 10 -4 10 -9 -1 -20 -19 -18 -30 -18
-22 1 3 8 0 14 -6 12 -7 -1 -12 12 -13 29 -1 17 -6 37 -11 45 -5 8 -9 19 -10
24 0 6 -2 16 -2 23 -1 6 -9 12 -17 12 -11 0 -14 -7 -11 -22z"/>
<path d="M6735 4143 c0 -56 6 -107 13 -118 14 -24 14 -25 16 113 1 86 -1 102
-14 102 -13 0 -16 -16 -15 -97z"/>
<path d="M8103 4234 c3 -4 -7 -33 -24 -65 -16 -33 -27 -59 -23 -59 3 0 -2 -7
-10 -16 -9 -8 -16 -24 -16 -35 0 -10 -5 -19 -12 -19 -9 0 -9 -3 1 -12 10 -11
15 -10 25 4 7 10 16 15 19 12 3 -3 4 2 1 13 -3 11 3 23 17 31 11 8 19 9 16 4
-7 -10 23 -9 41 2 7 4 12 2 12 -5 0 -7 3 -9 6 -6 11 11 44 -13 44 -32 0 -11 7
-22 16 -25 22 -9 32 3 14 14 -13 8 -13 10 -1 10 11 0 10 4 -5 16 -10 8 -13 12
-5 9 8 -5 7 2 -5 20 -10 16 -19 35 -20 43 -2 8 -6 18 -11 21 -4 3 -9 13 -11
21 -7 37 -26 60 -50 60 -14 0 -23 -3 -19 -6z m38 -46 c1 -7 1 -16 0 -20 0 -5
4 -8 10 -8 5 0 7 -4 4 -10 -3 -5 -2 -10 3 -10 5 0 9 -6 9 -13 0 -9 -13 -13
-39 -13 -43 0 -45 4 -22 52 16 34 33 45 35 22z"/>
<path d="M8460 4224 c13 -16 13 -17 0 -9 -13 8 -13 6 -2 -8 8 -9 11 -21 8 -26
-4 -5 -2 -12 3 -15 5 -3 12 4 16 17 13 41 11 52 -15 55 -22 4 -23 2 -10 -14z"/>
<path d="M9535 4150 c0 -50 4 -90 9 -90 5 0 3 -6 -3 -13 -13 -16 -5 -28 14
-21 10 4 13 33 13 110 0 89 -3 104 -17 104 -14 0 -16 -13 -16 -90z"/>
<path d="M10746 4184 c-14 -31 -26 -60 -26 -65 0 -5 -4 -9 -10 -9 -5 0 -9 -3
-8 -7 3 -17 -15 -63 -26 -63 -6 0 -4 -5 4 -10 18 -12 50 21 51 54 0 11 3 15 6
8 4 -10 8 -10 21 0 13 11 14 11 7 -2 -7 -13 -6 -13 7 -2 13 10 17 10 21 0 4
-10 8 -10 16 2 8 11 11 12 11 2 0 -7 5 -10 11 -7 5 4 15 -7 22 -24 13 -34 27
-43 48 -30 10 6 10 9 2 9 -7 0 -13 9 -13 20 0 11 -4 20 -9 20 -7 0 -14 14 -19
43 -1 4 -13 29 -26 56 -14 27 -22 51 -19 55 4 3 -5 6 -20 6 -21 0 -30 -9 -51
-56z m63 -15 c17 -49 14 -54 -31 -55 -24 -1 -37 1 -30 3 6 3 12 11 12 18 0 23
19 65 29 65 5 0 14 -14 20 -31z"/>
<path d="M10926 4138 c1 -57 3 -106 3 -110 1 -4 37 -6 81 -5 46 0 79 5 77 10
-2 6 -33 10 -70 10 -45 0 -66 4 -64 11 2 6 0 21 -4 34 -6 15 -5 21 1 17 10 -6
4 61 -8 79 -3 5 -1 6 5 3 6 -4 10 6 9 23 -1 20 -6 30 -17 30 -13 0 -15 -15
-13 -102z"/>
<path d="M11723 4048 c1 -7 6 -16 11 -20 15 -10 35 2 29 18 -6 17 -44 19 -40
2z"/>
</g>
</svg>
